<svg xmlns="http://www.w3.org/2000/svg" xmlns:xlink="http://www.w3.org/1999/xlink" width="1024" zoomAndPan="magnify" viewBox="0 0 768 767.999994" height="1024" preserveAspectRatio="xMidYMid meet" version="1.0"><defs><clipPath id="id1"><path d="M 115.210938 10 L 639.460938 10 L 639.460938 740 L 115.210938 740 Z M 115.210938 10 " clip-rule="nonzero"/></clipPath></defs><g clip-path="url(#id1)"><path fill="rgb(87.449646%, 7.839966%, 29.798889%)" d="M 639.460938 294.777344 C 639.019531 291.679688 637.914062 288.800781 635.921875 286.148438 C 635.703125 285.484375 635.480469 284.597656 635.039062 283.933594 C 634.816406 283.269531 634.597656 282.828125 634.375 282.164062 C 632.164062 276.855469 630.175781 271.542969 627.964844 266.234375 C 625.753906 260.921875 623.984375 255.613281 621.992188 250.300781 C 618.234375 239.460938 614.035156 229.058594 609.832031 218.4375 C 607.398438 212.6875 604.96875 206.933594 602.316406 201.179688 C 601.210938 198.746094 599.882812 196.3125 598.554688 193.878906 C 597.007812 190.78125 595.238281 187.683594 593.25 184.804688 C 587.722656 177.0625 577.109375 175.292969 569.371094 180.601562 C 565.609375 183.257812 562.957031 187.460938 562.292969 192.109375 C 561.628906 196.535156 562.734375 200.960938 565.167969 204.5 C 568.484375 210.03125 571.136719 215.785156 573.792969 221.757812 C 575.78125 225.960938 577.328125 230.386719 579.097656 234.59375 C 580.425781 238.132812 581.75 241.453125 583.300781 244.769531 C 579.320312 242.113281 575.117188 239.679688 570.917969 237.027344 L 547.921875 222.644531 C 533.769531 213.792969 519.839844 204.5 506.132812 194.761719 C 499.941406 190.339844 493.75 185.914062 487.558594 181.488281 C 473.40625 171.53125 459.257812 162.015625 445.105469 152.5 C 430.953125 142.988281 416.140625 132.585938 401.769531 122.851562 C 387.839844 113.335938 373.6875 104.042969 359.535156 94.75 C 345.164062 85.234375 330.570312 75.941406 316.199219 66.429688 L 272.863281 38.328125 C 265.566406 33.679688 258.488281 29.035156 251.414062 24.609375 L 240.800781 17.96875 L 235.714844 14.652344 C 234.832031 13.988281 233.726562 13.542969 232.839844 12.882812 C 229.523438 10.890625 225.765625 10.003906 222.007812 10.226562 C 212.5 11.332031 205.644531 19.742188 206.75 29.253906 C 207.191406 33.015625 208.738281 36.335938 211.171875 38.992188 C 212.941406 40.980469 214.929688 42.53125 217.363281 43.417969 C 220.015625 44.964844 222.890625 46.734375 225.542969 48.503906 L 235.9375 55.144531 C 242.789062 59.570312 249.644531 63.992188 256.5 68.417969 L 299.617188 96.742188 C 314.210938 106.257812 328.582031 115.550781 343.175781 125.0625 C 357.324219 134.355469 371.476562 143.652344 385.40625 153.164062 C 400 162.902344 414.371094 173.078125 428.742188 182.816406 C 442.453125 192.109375 455.941406 201.179688 469.429688 210.695312 C 475.617188 215.121094 481.808594 219.546875 488 223.972656 C 501.929688 233.707031 516.082031 243.222656 530.675781 252.292969 L 553.671875 266.675781 L 560.523438 271.101562 C 555.882812 270.660156 551.238281 270.4375 546.59375 269.996094 C 545.933594 269.996094 545.269531 269.773438 544.605469 269.773438 C 542.171875 269.550781 539.742188 269.332031 537.308594 269.109375 C 531.78125 268.667969 526.253906 268.445312 520.503906 268.226562 C 514.753906 268.003906 509.449219 267.5625 503.921875 267.117188 C 499.5 266.898438 495.078125 268.667969 491.761719 271.765625 C 488.441406 274.863281 486.453125 279.289062 486.453125 283.933594 C 486.453125 288.359375 488 292.5625 491.097656 295.882812 C 492.644531 297.652344 494.632812 298.980469 496.625 299.867188 C 498.613281 300.75 500.824219 301.195312 503.035156 301.195312 C 504.804688 301.414062 506.574219 301.414062 508.5625 301.636719 C 514.09375 301.859375 519.621094 302.300781 525.148438 302.519531 C 530.675781 302.742188 535.761719 303.183594 541.066406 303.628906 L 541.730469 303.628906 C 542.394531 303.628906 543.058594 303.847656 543.71875 303.847656 L 544.605469 303.847656 L 543.941406 303.847656 C 547.921875 304.070312 551.902344 304.292969 555.882812 304.734375 C 559.863281 305.175781 563.621094 305.617188 567.378906 306.28125 C 572.90625 307.167969 578.65625 308.496094 584.183594 309.160156 C 590.152344 310.042969 596.125 310.265625 602.316406 310.707031 C 604.96875 310.929688 607.84375 311.371094 610.496094 311.816406 C 613.148438 312.257812 616.464844 312.921875 619.5625 313.363281 L 619.117188 313.363281 C 620.003906 313.585938 621.109375 313.585938 621.992188 313.585938 C 631.5 313.585938 639.019531 306.0625 639.238281 296.769531 C 639.238281 296.324219 639.238281 295.660156 639.460938 294.777344 Z M 634.597656 283.050781 L 634.816406 283.492188 C 634.597656 283.050781 634.597656 282.828125 634.375 282.605469 Z M 275.957031 404.527344 C 266.230469 404.746094 256.5 404.746094 246.769531 404.746094 C 227.535156 404.746094 208.296875 405.632812 189.0625 406.074219 C 179.996094 406.296875 170.929688 406.296875 161.863281 406.738281 C 152.800781 407.179688 143.070312 407.179688 133.5625 407.625 L 132.015625 407.625 C 122.507812 407.402344 115.210938 399.4375 115.433594 390.144531 C 115.652344 381.070312 122.730469 373.769531 131.792969 373.546875 C 136.214844 373.328125 140.859375 373.328125 145.503906 373.105469 C 150.367188 372.882812 155.453125 372.882812 160.316406 372.664062 C 169.382812 372.222656 178.449219 372.222656 187.734375 372 C 206.972656 371.558594 226.429688 370.671875 245.664062 370.671875 C 255.394531 370.671875 265.121094 370.671875 274.851562 370.449219 C 284.582031 370.230469 294.53125 370.007812 304.257812 370.007812 C 313.546875 369.785156 322.832031 369.785156 332.339844 369.785156 C 341.847656 369.785156 350.691406 369.566406 359.980469 369.566406 C 364.84375 369.566406 369.929688 369.566406 375.015625 369.566406 L 388.722656 369.566406 L 418.574219 369.34375 C 437.589844 369.125 456.605469 368.902344 475.617188 367.574219 C 481.589844 367.132812 487.558594 366.6875 493.527344 366.46875 C 486.894531 363.8125 480.042969 361.15625 473.40625 358.722656 C 468.984375 356.953125 464.5625 355.40625 459.921875 353.855469 C 455.277344 352.308594 451.074219 350.535156 446.652344 348.988281 C 442.453125 347.4375 438.914062 344.121094 437.144531 339.914062 C 433.386719 331.285156 437.144531 321.109375 445.992188 317.347656 C 447.980469 316.460938 450.191406 316.019531 452.402344 315.796875 C 454.613281 315.796875 456.824219 316.238281 459.035156 316.902344 C 464.34375 318.675781 469.648438 320.886719 475.175781 322.65625 C 480.703125 324.425781 485.789062 326.640625 490.875 328.632812 C 501.488281 332.613281 511.882812 336.816406 522.273438 341.242188 C 532.664062 345.667969 543.5 350.535156 553.890625 355.40625 L 567.15625 361.601562 C 571.136719 363.589844 575.339844 365.363281 579.539062 367.132812 C 582.195312 368.238281 584.40625 369.785156 586.171875 371.777344 C 593.691406 375.984375 596.785156 384.832031 593.691406 392.800781 C 591.257812 399.214844 585.511719 402.976562 579.761719 406.074219 C 576.886719 407.625 573.792969 409.394531 570.695312 410.722656 C 568.042969 411.828125 565.390625 413.15625 562.734375 414.261719 C 560.082031 415.367188 557.429688 416.476562 554.777344 417.582031 L 551.015625 419.351562 C 541.507812 424.441406 532.445312 429.972656 523.15625 435.503906 C 517.628906 438.601562 512.101562 441.699219 506.351562 444.574219 C 501.929688 446.789062 497.289062 448.78125 492.644531 450.992188 C 490.210938 452.320312 487.78125 453.867188 485.125 455.195312 C 482.472656 456.746094 479.378906 457.628906 476.0625 457.628906 C 474.734375 457.628906 473.40625 457.410156 472.300781 457.1875 C 463.015625 454.976562 457.488281 445.902344 459.476562 436.609375 C 460.582031 432.183594 463.238281 428.203125 467.214844 425.988281 C 472.082031 423.113281 477.167969 420.457031 482.253906 418.023438 C 486.675781 415.8125 491.316406 413.820312 495.738281 411.605469 C 502.375 408.066406 509.007812 404.082031 515.640625 400.320312 C 512.101562 400.320312 508.785156 400.542969 505.246094 400.542969 C 495.738281 400.984375 486.011719 401.648438 476.503906 402.3125 C 457.488281 403.640625 438.25 403.863281 419.234375 404.082031 C 409.285156 404.304688 399.335938 404.304688 389.386719 404.304688 L 360.863281 404.304688 C 351.578125 404.304688 342.511719 404.527344 333.222656 404.527344 C 323.9375 404.527344 314.429688 404.746094 305.144531 404.746094 C 295.636719 404.304688 285.6875 404.527344 275.957031 404.527344 Z M 593.914062 460.949219 C 590.816406 457.628906 586.394531 455.859375 581.972656 455.859375 C 581.089844 455.859375 580.203125 455.859375 579.320312 456.082031 C 577.550781 455.640625 575.78125 455.417969 574.011719 455.195312 C 573.347656 455.195312 572.90625 455.195312 572.242188 455.195312 L 568.484375 455.195312 C 566.273438 455.195312 564.0625 455.417969 561.628906 455.417969 C 554.996094 455.640625 548.363281 455.859375 541.730469 456.304688 C 536.203125 456.746094 530.675781 457.851562 525.367188 458.515625 C 513.429688 460.285156 501.269531 462.277344 489.328125 464.488281 L 485.125 465.375 L 487.335938 464.933594 C 477.167969 466.703125 467.21875 469.359375 457.265625 471.570312 C 452.84375 472.675781 448.863281 475.554688 446.652344 479.535156 C 441.789062 487.722656 444.664062 498.121094 452.84375 502.992188 C 455.496094 504.539062 458.371094 505.425781 461.46875 505.425781 C 462.792969 505.425781 464.121094 505.203125 465.667969 504.980469 C 474.957031 502.992188 484.242188 500.558594 493.527344 498.785156 L 495.519531 498.34375 C 503.257812 497.015625 510.996094 495.6875 518.734375 494.359375 L 524.707031 493.476562 C 522.273438 495.46875 520.0625 497.679688 517.851562 499.894531 C 513.207031 504.316406 508.5625 508.523438 503.699219 512.949219 C 495.078125 520.914062 486.230469 528.65625 477.386719 536.402344 C 472.082031 540.828125 466.773438 545.253906 461.46875 549.679688 C 451.738281 557.644531 441.789062 565.609375 432.058594 573.796875 C 421.667969 582.203125 411.054688 590.835938 400.882812 599.683594 L 399.335938 600.792969 L 399.113281 600.792969 C 398.671875 601.234375 398.230469 601.453125 397.789062 601.898438 C 397.347656 602.117188 396.902344 602.5625 396.683594 603.003906 L 395.136719 604.332031 L 394.691406 604.773438 L 394.914062 604.554688 L 394.472656 604.773438 C 391.597656 607.207031 388.722656 609.640625 385.847656 612.074219 C 376.5625 620.042969 367.496094 628.007812 358.210938 636.195312 C 348.921875 644.382812 339.414062 652.566406 329.90625 660.535156 C 319.957031 668.941406 310.230469 677.351562 300.28125 685.980469 C 295.855469 689.960938 291.214844 693.945312 286.792969 697.929688 C 284.359375 700.140625 282.148438 702.351562 279.714844 704.566406 L 276.398438 707.664062 C 274.1875 709.65625 272.199219 711.867188 270.652344 714.300781 C 268.441406 718.0625 267.777344 722.710938 268.882812 727.136719 C 269.988281 731.5625 272.863281 735.542969 276.839844 737.757812 C 279.496094 739.304688 282.371094 739.96875 285.464844 739.96875 C 290.773438 739.96875 295.855469 737.535156 299.171875 733.332031 C 300.5 732.222656 301.605469 730.898438 302.933594 729.789062 C 311.777344 721.382812 321.0625 713.195312 330.351562 705.230469 C 340.078125 696.820312 350.027344 688.414062 359.757812 680.003906 C 369.042969 672.039062 378.332031 664.074219 387.617188 655.886719 C 397.125 647.480469 406.855469 639.070312 416.582031 630.882812 L 417.023438 630.441406 L 416.582031 630.664062 L 417.023438 630.441406 L 418.128906 629.554688 L 418.351562 629.335938 L 418.128906 629.554688 L 418.351562 629.335938 C 418.792969 628.890625 419.234375 628.671875 419.679688 628.226562 L 420.785156 627.121094 L 421.667969 626.457031 L 421.003906 627.121094 L 421.226562 626.902344 L 421.890625 626.457031 L 421.667969 626.679688 L 422.109375 626.457031 L 422.332031 626.457031 L 422.554688 626.238281 L 422.773438 626.238281 L 423.4375 625.792969 C 428.523438 621.589844 433.828125 617.164062 438.914062 612.960938 C 448.644531 604.773438 458.59375 596.808594 468.542969 588.621094 C 478.492188 580.433594 488 572.691406 497.730469 564.722656 C 507.679688 556.316406 517.410156 547.6875 526.917969 538.835938 C 534.65625 531.753906 542.171875 524.675781 549.910156 517.59375 C 549.027344 520.46875 547.921875 523.347656 547.039062 526.222656 C 545.488281 530.425781 543.71875 534.632812 542.171875 538.835938 C 540.402344 543.484375 538.855469 548.351562 537.308594 553.21875 C 535.761719 558.085938 533.550781 562.734375 531.78125 567.601562 C 530.894531 570.035156 529.789062 572.691406 528.683594 575.125 C 527.578125 577.558594 526.472656 579.992188 525.367188 582.425781 C 523.601562 586.628906 523.601562 591.277344 525.148438 595.257812 C 526.917969 599.464844 530.234375 603.003906 534.433594 604.773438 C 536.425781 605.660156 538.855469 606.101562 541.066406 606.101562 C 543.277344 606.101562 545.269531 605.660156 547.257812 604.996094 C 551.460938 603.226562 554.996094 599.90625 556.765625 595.703125 C 558.09375 592.605469 559.640625 589.726562 560.96875 586.628906 C 562.074219 584.195312 562.957031 581.539062 564.0625 578.886719 C 565.167969 576.230469 566.050781 574.015625 567.15625 571.363281 C 569.148438 566.050781 570.917969 560.519531 572.90625 554.988281 C 574.453125 550.785156 576.222656 546.800781 577.769531 542.820312 C 579.539062 538.171875 581.089844 533.527344 582.636719 528.65625 C 583.078125 527.550781 583.300781 526.445312 583.742188 525.558594 C 585.953125 519.585938 588.164062 513.609375 589.933594 507.414062 C 591.257812 502.328125 592.585938 497.238281 594.355469 492.371094 C 595.238281 490.378906 595.902344 488.164062 596.785156 486.175781 C 597.671875 484.183594 598.113281 482.414062 598.777344 480.421875 C 599.21875 479.09375 599.441406 477.765625 599.660156 476.21875 C 599.660156 475.996094 599.660156 475.773438 599.660156 475.554688 L 599.882812 474.226562 C 599.882812 474.667969 599.882812 474.890625 599.882812 475.332031 C 600.101562 474.667969 600.101562 473.78125 600.101562 473.117188 C 598.777344 468.472656 597.007812 464.269531 593.914062 460.949219 Z M 394.25 604.773438 Z M 394.25 604.996094 Z M 595.238281 483.519531 L 595.019531 483.738281 L 595.460938 483.078125 Z M 596.34375 481.75 C 596.34375 481.96875 596.125 481.96875 596.125 482.191406 C 596.34375 481.96875 596.566406 481.527344 596.566406 481.304688 C 596.566406 481.304688 596.566406 481.527344 596.34375 481.75 Z M 597.449219 479.757812 L 597.230469 479.980469 Z M 598.554688 475.554688 Z M 598.554688 475.554688 " fill-opacity="1" fill-rule="nonzero"/></g></svg>