<svg xmlns="http://www.w3.org/2000/svg" xmlns:xlink="http://www.w3.org/1999/xlink" width="1024" zoomAndPan="magnify" viewBox="0 0 768 767.999994" height="1024" preserveAspectRatio="xMidYMid meet" version="1.0"><defs><clipPath id="id1"><path d="M 371 538 L 536 538 L 536 674.8125 L 371 674.8125 Z M 371 538 " clip-rule="nonzero"/></clipPath></defs><path fill="rgb(23.919678%, 84.709167%, 98.81897%)" d="M 158.753906 520.1875 C 122.328125 520.1875 91.371094 511.746094 66.167969 494.875 C 10.933594 457.894531 5.265625 394.582031 5.050781 391.902344 C 0.0625 325.371094 14.902344 273.625 49.148438 238.042969 C 98.152344 187.132812 168.335938 189.03125 171.3125 189.152344 C 178.625 189.414062 184.339844 195.546875 184.078125 202.855469 C 183.816406 210.15625 177.71875 215.777344 170.386719 215.613281 C 169.457031 215.570312 108.582031 214.296875 68.0625 256.59375 C 39.394531 286.515625 27.082031 331.351562 31.464844 389.859375 C 31.503906 390.285156 36.574219 443.390625 81.191406 473.058594 C 121.199219 499.660156 180.570312 500.617188 257.652344 475.902344 C 264.621094 473.671875 272.078125 477.496094 274.3125 484.460938 C 276.550781 491.421875 272.714844 498.878906 265.746094 501.113281 C 226.089844 513.832031 190.363281 520.1875 158.753906 520.1875 Z M 158.753906 520.1875 " fill-opacity="1" fill-rule="nonzero"/><path fill="rgb(23.919678%, 84.709167%, 98.81897%)" d="M 375.503906 564.132812 C 324.550781 564.136719 287.777344 532.339844 287.191406 531.820312 C 249.246094 500.089844 231.09375 465.574219 233.53125 429.484375 C 237.082031 377.019531 283.601562 338.835938 300.738281 326.480469 L 300.738281 276.058594 C 300.738281 268.746094 306.667969 262.820312 313.984375 262.820312 C 321.300781 262.820312 327.234375 268.746094 327.234375 276.058594 L 327.234375 333.453125 C 327.234375 338 324.894531 342.230469 321.042969 344.65625 C 320.480469 345.011719 263.242188 381.808594 259.960938 431.367188 C 258.167969 458.5 273.148438 485.550781 304.488281 511.765625 C 307.796875 514.660156 380.15625 576.289062 457.910156 498.554688 C 463.789062 489.683594 497.523438 442.1875 551.792969 432.929688 C 586.875 426.941406 622.421875 438.128906 657.4375 466.183594 C 663.144531 470.757812 664.0625 479.089844 659.488281 484.796875 C 654.910156 490.5 646.574219 491.417969 640.867188 486.84375 C 612.074219 463.78125 583.667969 454.421875 556.421875 459 C 509.582031 466.890625 479.808594 513.460938 479.515625 513.929688 C 479.003906 514.742188 478.386719 515.519531 477.714844 516.203125 C 441.726562 552.6875 406.0625 564.128906 375.503906 564.132812 Z M 375.503906 564.132812 " fill-opacity="1" fill-rule="nonzero"/><path fill="rgb(23.919678%, 84.709167%, 98.81897%)" d="M 398.847656 346.691406 L 313.984375 346.691406 C 306.667969 346.691406 300.738281 340.765625 300.738281 333.453125 C 300.738281 326.140625 306.667969 320.214844 313.984375 320.214844 L 398.847656 320.214844 C 406.164062 320.214844 412.097656 326.140625 412.097656 333.453125 C 412.097656 340.765625 406.164062 346.691406 398.847656 346.691406 Z M 398.847656 346.691406 " fill-opacity="1" fill-rule="nonzero"/><path fill="rgb(23.919678%, 84.709167%, 98.81897%)" d="M 655.742188 564.453125 C 628.816406 564.453125 596.820312 556.617188 559.957031 540.960938 C 553.226562 538.097656 550.085938 530.320312 552.949219 523.597656 C 555.8125 516.867188 563.589844 513.734375 570.324219 516.589844 C 630.769531 542.273438 674.222656 544.988281 699.492188 524.664062 C 732.367188 498.230469 728.632812 434.484375 724.421875 412.152344 C 717.929688 376.007812 703.476562 351.632812 681.441406 339.582031 C 645.035156 319.671875 598.128906 338.632812 597.660156 338.828125 C 597.363281 338.949219 597.035156 339.074219 596.730469 339.171875 C 505.101562 369.457031 465.609375 330.691406 463.96875 329.023438 C 458.84375 323.808594 458.917969 315.425781 464.140625 310.304688 C 469.3125 305.222656 477.605469 305.25 482.746094 310.34375 C 484.269531 311.78125 513.992188 338.480469 587.996094 314.171875 C 594.316406 311.636719 648.183594 291.332031 693.976562 316.253906 C 723.496094 332.308594 742.503906 362.964844 750.480469 407.359375 C 751.199219 411.160156 767.949219 503.601562 716.101562 545.296875 C 700.21875 558.066406 680.046875 564.449219 655.742188 564.453125 Z M 655.742188 564.453125 " fill-opacity="1" fill-rule="nonzero"/><path fill="rgb(23.919678%, 84.709167%, 98.81897%)" d="M 563.433594 661.085938 C 559.796875 661.085938 556.175781 659.597656 553.558594 656.679688 C 474.652344 568.648438 496.261719 527.152344 498.984375 522.710938 L 521.578125 536.542969 C 521.578125 536.542969 521.71875 536.355469 521.910156 535.953125 C 521.769531 536.25 508.527344 566.753906 573.296875 639.011719 C 578.175781 644.460938 577.714844 652.832031 572.265625 657.707031 C 569.738281 659.972656 566.578125 661.085938 563.433594 661.085938 Z M 563.433594 661.085938 " fill-opacity="1" fill-rule="nonzero"/><g clip-path="url(#id1)"><path fill="rgb(23.919678%, 84.709167%, 98.81897%)" d="M 522.292969 674.8125 C 518.496094 674.8125 514.726562 673.191406 512.109375 670.050781 C 483.59375 635.855469 378.632812 562.863281 377.578125 562.132812 C 371.566406 557.960938 370.078125 549.707031 374.25 543.703125 C 378.425781 537.703125 386.679688 536.222656 392.6875 540.378906 C 397.121094 543.457031 501.664062 616.164062 532.460938 653.097656 C 537.144531 658.71875 536.386719 667.0625 530.765625 671.746094 C 528.289062 673.808594 525.28125 674.8125 522.292969 674.8125 Z M 522.292969 674.8125 " fill-opacity="1" fill-rule="nonzero"/></g><path fill="rgb(23.919678%, 84.709167%, 98.81897%)" d="M 330.273438 484.625 C 329.011719 484.625 327.734375 484.441406 326.46875 484.066406 C 319.472656 481.964844 315.492188 474.617188 317.574219 467.621094 C 318.175781 465.609375 332.695312 418.121094 370.644531 400.277344 C 390.371094 391.011719 412.277344 391.371094 435.746094 401.335938 C 436.53125 401.671875 437.28125 402.078125 437.988281 402.554688 C 438.359375 402.808594 477.910156 428.511719 494.46875 410.25 C 499.382812 404.832031 507.761719 404.421875 513.179688 409.332031 C 518.601562 414.242188 519.011719 422.613281 514.101562 428.035156 C 488.824219 455.898438 446.320312 439.726562 424.277344 425.246094 C 408.320312 418.710938 394.488281 418.367188 382.015625 424.199219 C 354.828125 436.902344 343.074219 474.820312 342.960938 475.207031 C 341.226562 480.925781 335.964844 484.625 330.273438 484.625 Z M 330.273438 484.625 " fill-opacity="1" fill-rule="nonzero"/><path fill="rgb(23.919678%, 84.709167%, 98.81897%)" d="M 409.992188 420.09375 C 406.453125 420.09375 402.917969 418.679688 400.308594 415.890625 C 376.519531 390.433594 414.9375 349.269531 422.878906 341.28125 C 428.035156 336.097656 436.421875 336.0625 441.613281 341.214844 C 446.800781 346.367188 446.832031 354.742188 441.6875 359.929688 C 426.472656 375.296875 416.386719 394.304688 419.671875 397.816406 C 424.664062 403.160156 424.378906 411.539062 419.035156 416.527344 C 416.480469 418.914062 413.234375 420.09375 409.992188 420.09375 Z M 409.992188 420.09375 " fill-opacity="1" fill-rule="nonzero"/><path fill="rgb(23.919678%, 84.709167%, 98.81897%)" d="M 246.582031 321.882812 C 245.714844 321.882812 244.839844 321.796875 243.957031 321.621094 C 222.304688 317.273438 207.808594 307.363281 200.871094 292.171875 C 189.300781 266.835938 204.671875 238.445312 206.460938 235.289062 C 210.070312 228.933594 218.160156 226.703125 224.519531 230.304688 C 230.871094 233.90625 233.105469 241.957031 229.53125 248.3125 C 226.527344 253.699219 219.867188 270.109375 225.003906 281.242188 C 228.234375 288.238281 236.367188 293.089844 249.175781 295.660156 C 256.351562 297.101562 260.996094 304.082031 259.554688 311.25 C 258.289062 317.539062 252.761719 321.882812 246.582031 321.882812 Z M 246.582031 321.882812 " fill-opacity="1" fill-rule="nonzero"/><path fill="rgb(23.919678%, 84.709167%, 98.81897%)" d="M 139.515625 447.484375 C 133.53125 447.484375 128.101562 443.402344 126.644531 437.328125 C 92.644531 295.5625 206.28125 266.425781 207.429688 266.148438 C 214.550781 264.425781 221.699219 268.808594 223.414062 275.914062 C 225.128906 283.007812 220.777344 290.144531 213.6875 291.875 C 209.847656 292.84375 124.730469 315.738281 152.410156 431.152344 C 154.117188 438.265625 149.730469 445.410156 142.613281 447.113281 C 141.578125 447.363281 140.539062 447.484375 139.515625 447.484375 Z M 139.515625 447.484375 " fill-opacity="1" fill-rule="nonzero"/><path fill="rgb(23.919678%, 84.709167%, 98.81897%)" d="M 110.546875 387.691406 C 95.757812 387.691406 83.5 383.519531 73.925781 375.195312 C 50.273438 354.613281 54.632812 317.175781 54.828125 315.59375 C 55.730469 308.335938 62.335938 303.195312 69.609375 304.085938 C 76.855469 304.988281 82.003906 311.578125 81.125 318.820312 C 80.3125 325.800781 80.570312 345.9375 91.382812 355.273438 C 99.304688 362.109375 112.660156 363.074219 131.085938 358.132812 C 138.164062 356.230469 145.417969 360.433594 147.3125 367.492188 C 149.207031 374.554688 145.015625 381.8125 137.949219 383.707031 C 128.03125 386.367188 118.882812 387.691406 110.546875 387.691406 Z M 110.546875 387.691406 " fill-opacity="1" fill-rule="nonzero"/><path fill="rgb(23.919678%, 84.709167%, 98.81897%)" d="M 413.421875 297.902344 C 407.816406 297.902344 402.613281 294.324219 400.808594 288.707031 C 392.8125 263.8125 379.6875 246.605469 361.804688 237.566406 C 333.121094 223.070312 300.570312 233.695312 300.242188 233.804688 C 298.507812 234.386719 296.628906 234.621094 294.785156 234.453125 C 285.011719 233.5625 276.636719 229.152344 270.566406 221.691406 C 256.480469 204.375 259.316406 175.828125 259.683594 172.632812 C 260.523438 165.371094 267.070312 160.160156 274.359375 160.996094 C 281.617188 161.832031 286.828125 168.386719 286.007812 175.636719 C 285.273438 182.28125 285.570312 198.195312 291.144531 205.007812 C 292.265625 206.382812 293.515625 207.242188 295.121094 207.707031 C 306.015625 204.714844 340.644531 197.347656 373.476562 213.792969 C 398.0625 226.117188 415.75 248.597656 426.035156 280.613281 C 428.273438 287.574219 424.4375 295.027344 417.472656 297.265625 C 416.125 297.699219 414.761719 297.902344 413.421875 297.902344 Z M 413.421875 297.902344 " fill-opacity="1" fill-rule="nonzero"/><path fill="rgb(23.919678%, 84.709167%, 98.81897%)" d="M 267.097656 263.117188 C 263.746094 263.117188 260.398438 261.855469 257.816406 259.328125 C 252.597656 254.203125 252.515625 245.824219 257.640625 240.601562 L 282.980469 214.796875 C 288.105469 209.582031 296.492188 209.503906 301.714844 214.621094 C 306.933594 219.742188 307.015625 228.125 301.890625 233.34375 L 276.550781 259.148438 C 273.957031 261.789062 270.527344 263.117188 267.097656 263.117188 Z M 267.097656 263.117188 " fill-opacity="1" fill-rule="nonzero"/><path fill="rgb(23.919678%, 84.709167%, 98.81897%)" d="M 398.863281 267.066406 C 398.242188 267.066406 397.609375 267.019531 396.976562 266.929688 C 389.734375 265.894531 384.703125 259.1875 385.734375 251.953125 C 392.453125 204.9375 466.183594 209.9375 474.5625 210.648438 C 481.851562 211.277344 487.25 217.695312 486.621094 224.976562 C 485.992188 232.253906 479.589844 237.613281 472.296875 237.027344 C 453.710938 235.480469 414.5 237.972656 411.964844 255.695312 C 411.019531 262.296875 405.351562 267.066406 398.863281 267.066406 Z M 398.863281 267.066406 " fill-opacity="1" fill-rule="nonzero"/><path fill="rgb(23.919678%, 84.709167%, 98.81897%)" d="M 541.914062 346.691406 C 538.683594 346.691406 535.441406 345.519531 532.890625 343.140625 C 505.710938 317.851562 529.902344 276.5 548.484375 256.054688 C 553.402344 250.640625 561.777344 250.238281 567.199219 255.15625 C 572.609375 260.066406 573.015625 268.429688 568.109375 273.84375 C 561.277344 281.40625 538.339844 312.035156 550.945312 323.761719 C 556.300781 328.746094 556.601562 337.121094 551.613281 342.472656 C 549.003906 345.277344 545.464844 346.691406 541.914062 346.691406 Z M 541.914062 346.691406 " fill-opacity="1" fill-rule="nonzero"/><path fill="rgb(23.919678%, 84.709167%, 98.81897%)" d="M 161.882812 242.644531 C 160.769531 242.644531 159.640625 242.503906 158.515625 242.210938 C 151.4375 240.359375 147.203125 233.121094 149.054688 226.046875 C 150.144531 221.886719 176.71875 124.140625 260.773438 118.238281 C 261.128906 118.214844 261.488281 118.210938 261.847656 118.207031 C 264.519531 118.238281 327.648438 119.480469 357.824219 167.058594 C 361.742188 173.238281 359.910156 181.414062 353.730469 185.332031 C 347.546875 189.246094 339.363281 187.410156 335.449219 181.238281 C 314.046875 147.496094 267.222656 144.882812 262.023438 144.699219 C 197.183594 149.75 174.902344 231.925781 174.6875 232.757812 C 173.125 238.707031 167.757812 242.644531 161.882812 242.644531 Z M 161.882812 242.644531 " fill-opacity="1" fill-rule="nonzero"/><path fill="rgb(23.919678%, 84.709167%, 98.81897%)" d="M 492.335938 174.765625 C 488.054688 174.765625 483.851562 172.695312 481.300781 168.871094 C 463.996094 142.933594 443.410156 128.402344 420.117188 125.691406 C 375.167969 120.488281 332.539062 159.648438 332.113281 160.042969 C 326.765625 165.027344 318.390625 164.753906 313.394531 159.417969 C 308.402344 154.089844 308.660156 145.730469 313.988281 140.730469 C 316.074219 138.769531 365.753906 92.808594 423.015625 99.371094 C 454.460938 102.980469 481.488281 121.417969 503.34375 154.183594 C 507.402344 160.265625 505.757812 168.488281 499.671875 172.542969 C 497.414062 174.046875 494.859375 174.765625 492.335938 174.765625 Z M 492.335938 174.765625 " fill-opacity="1" fill-rule="nonzero"/><path fill="rgb(23.919678%, 84.709167%, 98.81897%)" d="M 683.828125 297.902344 C 678.253906 297.902344 673.066406 294.363281 671.242188 288.78125 C 656.546875 243.996094 631.289062 212.558594 596.164062 195.34375 C 529.621094 162.746094 449.015625 190.792969 448.207031 191.082031 C 441.316406 193.53125 433.738281 189.941406 431.28125 183.054688 C 428.828125 176.167969 432.421875 168.597656 439.316406 166.140625 C 443.035156 164.816406 531.359375 134.109375 607.828125 171.570312 C 649.609375 192.042969 679.417969 228.703125 696.414062 280.535156 C 698.695312 287.484375 694.90625 294.964844 687.953125 297.238281 C 686.582031 297.6875 685.191406 297.902344 683.828125 297.902344 Z M 683.828125 297.902344 " fill-opacity="1" fill-rule="nonzero"/><path fill="rgb(23.919678%, 84.709167%, 98.81897%)" d="M 730.863281 396.964844 C 730.164062 396.964844 729.453125 396.90625 728.738281 396.792969 C 721.515625 395.628906 716.605469 388.832031 717.769531 381.613281 C 722.617188 351.546875 718.242188 329.273438 704.757812 315.414062 C 683.0625 293.117188 642.871094 297.734375 642.476562 297.785156 C 635.199219 298.71875 628.5625 293.644531 627.601562 286.398438 C 626.640625 279.148438 631.742188 272.496094 638.996094 271.53125 C 641.167969 271.25 692.53125 264.859375 723.753906 296.953125 C 743.394531 317.144531 750.183594 347.042969 743.925781 385.828125 C 742.878906 392.332031 737.25 396.964844 730.863281 396.964844 Z M 730.863281 396.964844 " fill-opacity="1" fill-rule="nonzero"/></svg>