<svg xmlns="http://www.w3.org/2000/svg" xmlns:xlink="http://www.w3.org/1999/xlink" width="1024" zoomAndPan="magnify" viewBox="0 0 768 767.999994" height="1024" preserveAspectRatio="xMidYMid meet" version="1.0"><path fill="rgb(100%, 100%, 100%)" d="M 749.71875 461.046875 C 752.160156 460.824219 754.542969 460.460938 756.78125 459.773438 C 763.480469 457.742188 763.398438 448.335938 756.78125 446.261719 C 748.941406 443.808594 740.332031 444.15625 732.21875 442.734375 C 723.898438 441.28125 715.679688 439.246094 707.457031 437.320312 C 693.671875 434.089844 679.886719 430.859375 666.089844 427.625 C 671.566406 426.503906 677 423.933594 682.070312 422.128906 C 689.851562 419.363281 697.625 416.59375 705.40625 413.832031 C 713.191406 411.066406 720.980469 408.203125 728.605469 405.015625 C 734.914062 402.378906 743.433594 398.824219 747.660156 393.28125 C 748.808594 391.773438 747.976562 389.652344 746.542969 388.625 C 748.460938 384.632812 747.628906 379.660156 741.886719 378.59375 C 729.871094 376.363281 716.910156 377.253906 704.710938 376.941406 C 692.035156 376.617188 679.355469 376.269531 666.679688 376.007812 C 654.039062 375.75 641.402344 375.386719 628.765625 375.363281 C 640.71875 368.542969 652.445312 361.328125 663.867188 353.644531 C 675.734375 345.660156 687.269531 337.1875 698.511719 328.355469 C 710.566406 318.882812 724.585938 308.949219 734.269531 297.007812 C 739.332031 290.757812 732.699219 279.363281 724.875 284.839844 C 722.15625 286.742188 719.53125 288.808594 716.953125 290.933594 C 716.695312 290.875 716.546875 290.71875 716.273438 290.675781 C 654.105469 280.90625 591.929688 271.148438 529.753906 261.410156 C 498.667969 256.542969 467.578125 251.675781 436.484375 246.808594 C 421.605469 244.476562 406.734375 242.171875 391.832031 239.988281 C 380.046875 238.261719 364.605469 233.875 353.117188 238.453125 C 345.527344 239.808594 338.007812 242.296875 330.671875 244.121094 C 318.367188 247.1875 306.027344 250.140625 293.65625 252.941406 C 268.257812 258.683594 242.71875 263.816406 217.082031 268.335938 C 191.492188 272.839844 165.804688 276.757812 140.027344 280 C 127.429688 281.585938 114.8125 283.039062 102.214844 284.636719 C 92.761719 285.832031 79.207031 285.550781 72.53125 293.222656 C 71.722656 294.15625 71.433594 295.839844 72.53125 296.734375 C 72.609375 296.792969 72.691406 296.824219 72.757812 296.875 C 70.109375 298.074219 68.984375 302.261719 72.1875 303.851562 C 87.859375 311.609375 103.84375 318.792969 119.988281 325.660156 C 116.382812 326.429688 112.933594 327.875 109.535156 329.289062 C 101.5625 332.601562 93.730469 336.214844 85.882812 339.808594 C 77.609375 343.59375 69.367188 347.429688 61.128906 351.28125 C 57.28125 353.082031 51.71875 354.601562 48.691406 357.636719 C 46.929688 359.394531 45.429688 362.46875 45.503906 365.214844 C 43.828125 366.007812 42.347656 367.363281 41.476562 369.214844 C 38.542969 375.46875 45.148438 380.832031 50.535156 382.378906 C 52.652344 382.988281 54.933594 383.304688 57.199219 383.625 C 56.953125 383.785156 56.695312 383.925781 56.449219 384.082031 C 53.121094 386.195312 49.824219 388.34375 46.539062 390.527344 C 44.457031 391.90625 42.164062 393.195312 40.328125 394.898438 C 38.269531 396.808594 37.152344 399.023438 36.425781 401.691406 C 35.464844 405.214844 37.75 407.773438 40.816406 408.652344 C 41 408.898438 41.140625 409.164062 41.453125 409.355469 C 53.046875 416.601562 70.449219 416.550781 83.804688 418.246094 C 99.113281 420.179688 114.570312 421.320312 129.960938 422.59375 C 117.523438 424.925781 105.042969 427.015625 92.84375 429.535156 C 78.03125 432.59375 63.222656 435.652344 48.417969 438.71875 C 41.015625 440.246094 33.605469 441.773438 26.203125 443.304688 C 19.414062 444.710938 11.242188 444.898438 8.035156 451.898438 C 7.332031 453.429688 7.125 455.269531 7.816406 456.792969 C 5.867188 458.496094 5.074219 461.742188 7.363281 463.550781 C 14.328125 469.03125 23.828125 471.785156 32.40625 473.660156 C 37.34375 474.742188 42.511719 475.289062 47.640625 475.140625 C 48.027344 475.230469 48.433594 475.3125 48.804688 475.402344 C 61.460938 478.527344 74.171875 481.429688 86.882812 484.296875 C 112.320312 490.046875 137.828125 495.535156 163.300781 501.15625 C 188.101562 506.625 212.90625 512.089844 237.714844 517.535156 C 250.453125 520.328125 263.195312 523.121094 275.933594 525.925781 C 287.136719 528.386719 300.445312 533.792969 311.808594 530.496094 C 314.148438 529.816406 315.769531 527.527344 315.953125 525.195312 C 316.375 525.015625 316.777344 524.839844 317.199219 524.660156 C 322.972656 522.230469 328.738281 519.757812 334.429688 517.148438 C 345.632812 512.007812 356.742188 506.625 367.722656 501.023438 C 371.007812 499.34375 374.207031 497.511719 377.464844 495.792969 C 377.0625 497.859375 377.820312 500.128906 380.714844 502.039062 C 387.714844 506.644531 397.273438 508.296875 405.246094 510.570312 C 413.914062 513.03125 422.582031 515.484375 431.265625 517.898438 C 439.640625 520.230469 448.027344 522.558594 456.40625 524.890625 C 456.496094 524.914062 456.589844 524.941406 456.679688 524.964844 C 457.234375 525.328125 457.863281 525.609375 458.605469 525.699219 C 458.847656 525.734375 459.070312 525.699219 459.308594 525.726562 C 462.519531 526.667969 465.742188 527.644531 469 528.328125 C 471.316406 528.816406 473.507812 528.933594 475.808594 528.195312 C 477.039062 527.851562 478.105469 527.230469 479.015625 526.328125 C 480.289062 524.496094 480.496094 524.34375 479.636719 525.890625 C 480.316406 525.585938 480.777344 524.980469 481.144531 524.304688 C 484.996094 523.585938 488.851562 522.792969 492.746094 521.992188 C 504.828125 519.503906 516.84375 516.675781 528.878906 513.941406 C 552.9375 508.46875 576.988281 502.972656 601.027344 497.445312 C 649.113281 486.378906 697.1875 475.3125 745.269531 464.246094 C 747.074219 463.824219 748.628906 462.585938 749.71875 461.046875 Z M 628.644531 390.890625 C 640.824219 391.503906 653.023438 391.808594 665.222656 392.214844 C 677.414062 392.609375 689.601562 392.933594 701.792969 393.261719 C 705.820312 393.371094 709.972656 393.632812 714.148438 393.890625 C 707.980469 395.898438 701.84375 397.988281 695.714844 400.121094 C 687.320312 403.046875 678.917969 405.957031 670.53125 408.898438 C 666.421875 410.335938 661.675781 411.535156 657.917969 413.734375 C 654.164062 415.925781 650.757812 418.765625 647.035156 421.066406 C 646.339844 421.496094 645.878906 422.128906 645.53125 422.839844 C 631.554688 419.558594 617.578125 416.269531 603.574219 413.089844 C 594.882812 411.113281 586.214844 409.15625 577.417969 407.71875 C 576.417969 407.550781 575.457031 407.445312 574.503906 407.328125 C 574.503906 407.148438 574.546875 406.972656 574.53125 406.792969 C 574.441406 405.535156 573.867188 404.214844 572.960938 403.246094 C 577.632812 401.214844 582.320312 399.203125 586.9375 397.054688 C 592.542969 394.453125 598.074219 391.699219 603.59375 388.914062 C 611.847656 390.355469 620.523438 390.484375 628.644531 390.890625 Z M 528.367188 433.097656 C 525.992188 435.355469 523.992188 437.601562 522.128906 440.304688 C 518.152344 439.609375 514.058594 439.261719 510.246094 438.71875 C 500.636719 437.34375 491.035156 435.972656 481.425781 434.617188 C 489.6875 432.394531 497.78125 429.980469 505.457031 427.742188 C 520.996094 423.214844 536.3125 417.933594 551.414062 412.082031 C 547.890625 415.261719 544.367188 418.453125 540.847656 421.632812 C 536.652344 425.429688 532.460938 429.203125 528.367188 433.097656 Z M 142.011719 295.980469 C 167.246094 292.808594 192.410156 289.089844 217.476562 284.773438 C 243.140625 280.355469 268.695312 275.3125 294.117188 269.667969 C 307.152344 266.773438 320.160156 263.726562 333.113281 260.484375 C 343.320312 257.933594 354.558594 256.105469 364.078125 251.253906 C 372.480469 253.71875 382.074219 254.34375 389.648438 255.617188 C 405.164062 258.214844 420.695312 260.667969 436.226562 263.121094 C 466.628906 267.925781 497.039062 272.71875 527.441406 277.519531 C 585.332031 286.652344 643.222656 295.765625 701.117188 304.867188 C 698.179688 307.476562 695.226562 310.054688 692.199219 312.503906 C 680.828125 321.667969 669.058594 330.320312 656.976562 338.511719 C 633.050781 354.726562 607.859375 369.089844 581.726562 381.429688 C 555.707031 393.710938 528.722656 403.882812 501.097656 411.941406 C 486.957031 416.066406 472.683594 419.75 458.265625 422.808594 C 450.476562 424.460938 442.910156 426.089844 435.492188 428.296875 C 432.066406 427.792969 428.519531 427.171875 424.921875 426.632812 C 414.226562 421.59375 402.914062 417.726562 391.914062 413.519531 C 377.160156 407.882812 362.40625 402.246094 347.644531 396.601562 C 332.566406 390.839844 317.480469 385.105469 302.40625 379.34375 C 301.96875 377.355469 300.59375 375.511719 298.253906 374.609375 C 293.285156 372.699219 288.054688 372.066406 282.761719 371.859375 C 274.230469 368.609375 265.710938 365.328125 257.175781 362.097656 C 201.980469 341.179688 146.832031 318.128906 90.222656 301.121094 C 94.351562 300.972656 98.476562 300.460938 102.222656 300.179688 C 115.496094 299.164062 128.789062 297.644531 142.011719 295.980469 Z M 91.71875 354.847656 C 99.652344 351.046875 107.625 347.335938 115.421875 343.261719 C 119.359375 341.203125 123.585938 339.128906 126.878906 336.113281 C 128.628906 334.511719 130.277344 332.550781 132.011719 330.710938 C 166.449219 344.933594 201.542969 357.832031 236.242188 371.105469 C 235.878906 371.097656 235.507812 371.089844 235.144531 371.082031 C 214.648438 370.683594 194.15625 370.296875 173.664062 369.925781 C 153.167969 369.550781 132.675781 369.171875 112.179688 368.800781 C 101.257812 368.601562 90.324219 368.363281 79.398438 368.289062 C 74.21875 368.253906 69.019531 368.097656 63.839844 368.195312 C 65.246094 367.4375 66.613281 366.691406 67.835938 366.121094 C 75.808594 362.386719 83.78125 358.652344 91.71875 354.847656 Z M 58.546875 401.792969 C 61.019531 400.097656 63.503906 398.410156 65.957031 396.691406 C 69.722656 394.054688 73.367188 391.335938 76.941406 388.445312 C 77.851562 387.710938 78.710938 387.039062 79.4375 386.105469 C 80 385.289062 80.132812 385.148438 79.828125 385.691406 C 79.992188 385.519531 80.160156 385.34375 80.332031 385.171875 C 80.523438 385 80.65625 384.757812 80.835938 384.558594 C 83.128906 384.542969 85.425781 384.511719 87.59375 384.570312 C 101.933594 384.941406 116.28125 385.15625 130.632812 385.453125 C 158.636719 386.023438 186.644531 386.617188 214.648438 387.164062 C 228.3125 387.429688 241.972656 387.691406 255.636719 387.957031 C 264.128906 388.121094 273.542969 389.230469 282.589844 388.949219 C 300.898438 396.007812 319.210938 403.074219 337.53125 410.113281 C 352.265625 415.785156 366.996094 421.445312 381.734375 427.113281 C 381.097656 427.074219 380.433594 427.046875 379.816406 427 C 363.375 425.632812 346.925781 424.269531 330.484375 422.90625 C 298.277344 420.238281 266.074219 417.578125 233.871094 414.933594 C 215.511719 413.429688 197.148438 411.914062 178.789062 410.402344 C 177.136719 409.757812 175.515625 409.601562 173.976562 410.007812 C 161.738281 409 149.496094 408 137.25 406.988281 C 120.824219 405.644531 104.367188 404.164062 87.90625 403.230469 C 79.191406 402.726562 68.523438 401.394531 58.546875 401.792969 Z M 360.519531 486.363281 C 349.910156 491.824219 339.191406 497.066406 328.367188 502.097656 C 322.601562 504.773438 316.828125 507.453125 311.03125 510.074219 C 307.773438 511.542969 304.5625 512.824219 301.710938 514.625 C 295.390625 512.734375 288.578125 511.875 282.308594 510.503906 C 269.574219 507.710938 256.828125 504.90625 244.089844 502.113281 C 217.941406 496.378906 191.78125 490.667969 165.625 484.957031 C 140.132812 479.394531 114.679688 473.675781 89.15625 468.296875 C 76.378906 465.601562 63.609375 462.914062 50.789062 460.453125 C 46.078125 459.542969 40.808594 458.179688 35.78125 458.105469 C 40.386719 457.148438 44.992188 456.1875 49.601562 455.230469 C 65.992188 451.824219 82.382812 448.410156 98.773438 445 C 114.40625 441.75 130.121094 438.675781 145.652344 434.980469 C 154.027344 432.988281 162.4375 430.363281 169.734375 425.949219 C 189.738281 427.625 209.746094 429.304688 229.75 430.972656 C 261.957031 433.667969 294.160156 436.363281 326.363281 439.03125 C 342.804688 440.394531 359.253906 441.757812 375.695312 443.121094 C 389.871094 444.296875 408.867188 449.238281 422.339844 443.785156 C 422.902344 443.558594 423.398438 443.253906 423.847656 442.898438 C 425.542969 443.113281 427.21875 443.320312 428.890625 443.519531 C 429.378906 443.625 429.851562 443.792969 430.328125 443.890625 C 430.910156 444.007812 431.4375 443.949219 431.976562 443.933594 C 430.667969 444.710938 429.363281 445.476562 428.054688 446.246094 C 423.480469 448.949219 418.890625 451.625 414.367188 454.417969 C 409.953125 457.15625 404.699219 459.808594 401.328125 463.925781 C 398.167969 465.691406 395.074219 467.609375 391.996094 469.355469 C 381.632812 475.222656 371.132812 480.898438 360.519531 486.363281 Z M 596.644531 481.617188 C 573.273438 487.007812 549.917969 492.429688 526.5625 497.875 C 514.554688 500.675781 502.519531 503.371094 490.5625 506.402344 C 483.898438 508.089844 477.296875 509.667969 470.921875 511.851562 C 467.851562 510.933594 464.726562 510.148438 461.667969 509.3125 C 452.972656 506.933594 444.289062 504.550781 435.597656 502.171875 C 427.210938 499.875 418.808594 497.609375 410.40625 495.363281 C 403.386719 493.476562 395.585938 490.71875 388.09375 490.097656 C 392.15625 487.890625 396.289062 485.808594 400.316406 483.535156 C 405.765625 480.460938 411.746094 477.519531 416.527344 473.429688 C 418.554688 471.691406 420.480469 469.90625 422.433594 468.121094 C 427.078125 465.550781 431.652344 462.867188 436.242188 460.203125 C 441.148438 457.363281 446.050781 454.519531 450.957031 451.675781 C 453.148438 450.402344 455.597656 449.214844 457.574219 447.585938 C 461.9375 448.230469 466.296875 448.875 470.664062 449.511719 C 482.398438 451.203125 494.152344 452.832031 505.894531 454.484375 C 508.714844 454.882812 511.777344 455.46875 514.910156 455.988281 C 490.734375 461.914062 467.230469 470.335938 445.160156 481.925781 C 443.917969 482.578125 444.421875 484.867188 445.910156 484.691406 C 478.636719 480.890625 510.128906 471.246094 540.21875 457.867188 C 543.433594 456.4375 542.101562 452.644531 539.523438 451.511719 C 539.8125 450.765625 539.835938 449.949219 539.300781 449.214844 C 538.554688 448.214844 537.726562 447.355469 536.859375 446.570312 C 538.347656 445.371094 539.804688 444.121094 541.25 442.898438 C 545.34375 439.4375 549.3125 435.824219 553.316406 432.261719 C 557.210938 428.792969 561.109375 425.328125 565.003906 421.859375 C 565.847656 421.113281 566.738281 420.304688 567.640625 419.460938 C 569.867188 420.757812 572.480469 421.609375 575.332031 422.46875 C 584.464844 425.214844 593.71875 427.371094 602.980469 429.609375 C 620.265625 433.785156 637.574219 437.808594 654.882812 441.867188 C 672.195312 445.933594 689.496094 450.015625 706.804688 454.054688 C 708.269531 454.394531 709.816406 454.792969 711.371094 455.179688 C 673.121094 463.988281 634.878906 472.808594 596.644531 481.617188 Z M 596.644531 481.617188 " fill-opacity="1" fill-rule="nonzero"/><path fill="rgb(100%, 100%, 100%)" d="M 273.070312 320.875 C 287.625 319.371094 302.183594 316.734375 316.347656 313.121094 C 344.210938 306.023438 376.839844 296.824219 398.722656 277.371094 C 401.683594 274.742188 398.515625 270.238281 395.039062 271.054688 C 380.476562 274.484375 366.789062 281.140625 352.820312 286.410156 C 339.613281 291.402344 326.230469 295.90625 312.628906 299.652344 C 299.023438 303.394531 285.328125 306.558594 271.5 309.363281 C 256.894531 312.320312 241.851562 313.667969 227.734375 318.558594 C 227.097656 318.785156 227.023438 319.742188 227.734375 319.933594 C 242.554688 323.800781 257.992188 322.4375 273.070312 320.875 Z M 273.070312 320.875 " fill-opacity="1" fill-rule="nonzero"/><path fill="rgb(100%, 100%, 100%)" d="M 369.03125 323.519531 C 360.429688 326.097656 351.695312 328.386719 343.011719 330.644531 C 335.054688 332.699219 326.585938 333.898438 320.046875 339.066406 C 319.65625 339.371094 319.832031 340.007812 320.195312 340.230469 C 327.664062 344.742188 337.15625 343.949219 345.625 343.269531 C 355.300781 342.496094 364.679688 340.808594 374.058594 338.3125 C 383.355469 335.839844 392.4375 332.734375 401.335938 329.082031 C 409.628906 325.675781 420.539062 322.335938 425.027344 313.949219 C 427.105469 310.066406 424.441406 306.140625 420.316406 305.742188 C 411.632812 304.898438 403.105469 310.898438 395.363281 314.15625 C 386.777344 317.765625 377.9375 320.851562 369.03125 323.519531 Z M 369.03125 323.519531 " fill-opacity="1" fill-rule="nonzero"/><path fill="rgb(100%, 100%, 100%)" d="M 396.660156 352.519531 C 392.1875 354.296875 387.367188 355.4375 384.605469 359.578125 C 383.734375 360.882812 384.230469 363.253906 385.738281 363.90625 C 390.34375 365.90625 394.859375 364.417969 399.640625 363.34375 C 405.519531 362.023438 411.300781 360.417969 417.082031 358.699219 C 428.972656 355.171875 440.675781 351.082031 452.195312 346.496094 C 463.304688 342.066406 474.285156 337.371094 485.0625 332.1875 C 494.90625 327.453125 507.597656 322.082031 513.910156 312.75 C 515.679688 310.128906 513.332031 306.496094 510.335938 306.535156 C 499.402344 306.683594 487.949219 313.808594 478.273438 318.355469 C 467.679688 323.328125 457.035156 328.238281 446.242188 332.773438 C 435.417969 337.328125 424.515625 341.726562 413.566406 345.972656 C 407.941406 348.15625 402.285156 350.289062 396.660156 352.519531 Z M 396.660156 352.519531 " fill-opacity="1" fill-rule="nonzero"/><path fill="rgb(100%, 100%, 100%)" d="M 468.910156 375.652344 C 463.328125 376.832031 457.695312 377.90625 452.28125 379.71875 C 449.609375 380.609375 447.011719 381.699219 444.398438 382.75 C 442.902344 383.34375 441.402344 383.90625 440.039062 384.785156 C 438.824219 385.570312 437.730469 386.570312 436.625 387.503906 C 434.761719 389.074219 436.402344 391.839844 438.476562 391.964844 C 441.585938 392.148438 444.324219 391.890625 447.351562 391.089844 C 450.054688 390.371094 452.785156 389.71875 455.429688 388.785156 C 460.953125 386.832031 466.238281 384.355469 471.558594 381.90625 C 473.085938 381.203125 473.582031 379.054688 472.953125 377.632812 C 472.242188 376.023438 470.632812 375.289062 468.910156 375.652344 Z M 468.910156 375.652344 " fill-opacity="1" fill-rule="nonzero"/><path fill="rgb(100%, 100%, 100%)" d="M 303.222656 476.296875 C 283.492188 468.253906 263.023438 464.066406 242.265625 459.511719 C 232.132812 457.289062 221.976562 455.238281 211.746094 453.496094 C 201.691406 451.773438 191.699219 451.460938 181.632812 450.296875 C 181.402344 450.269531 181.394531 450.601562 181.585938 450.675781 C 191.367188 454.320312 200.65625 458.667969 210.695312 461.785156 C 220.953125 464.964844 231.3125 467.792969 241.703125 470.503906 C 261.839844 475.757812 281.539062 481.023438 302.339844 482.773438 C 306.375 483.097656 306.367188 477.570312 303.222656 476.296875 Z M 303.222656 476.296875 " fill-opacity="1" fill-rule="nonzero"/><path fill="rgb(100%, 100%, 100%)" d="M 331.632812 461.066406 C 329.753906 460.496094 327.769531 460.054688 325.941406 459.34375 C 324.058594 458.617188 322.34375 457.742188 320.394531 457.140625 C 316.746094 456.007812 313.058594 455.015625 309.359375 454.054688 C 305.65625 453.097656 301.800781 452.667969 298.03125 452.066406 C 294.359375 451.476562 290.324219 450.734375 286.875 452.453125 C 285.707031 453.03125 285.816406 454.484375 286.5 455.34375 C 288.867188 458.3125 293.132812 459.328125 296.632812 460.335938 C 300.15625 461.363281 303.671875 462.558594 307.285156 463.1875 C 310.933594 463.824219 314.554688 464.519531 318.21875 465.03125 C 320.3125 465.320312 322.203125 465.320312 324.273438 465.417969 C 326.230469 465.511719 328.25 466.015625 330.195312 466.296875 C 333.558594 466.792969 335.074219 462.097656 331.632812 461.066406 Z M 331.632812 461.066406 " fill-opacity="1" fill-rule="nonzero"/></svg>