<?xml version="1.0" encoding="UTF-8"?>
<svg width="50" height="50" version="1.1" viewBox="0 0 50 50" xmlns="http://www.w3.org/2000/svg" xmlns:cc="http://creativecommons.org/ns#" xmlns:dc="http://purl.org/dc/elements/1.1/" xmlns:rdf="http://www.w3.org/1999/02/22-rdf-syntax-ns#">
 <metadata>
  <rdf:RDF>
   <cc:Work rdf:about="">
    <dc:format>image/svg+xml</dc:format>
    <dc:type rdf:resource="http://purl.org/dc/dcmitype/StillImage"/>
    <dc:title/>
   </cc:Work>
  </rdf:RDF>
 </metadata>
 <path id="facebook" d="m7.324 50h16.309v-17.773h-5.86v-5.86h5.859v-7.324a7.332 7.332 0 0 1 7.324-7.324h7.324v5.859h-5.858a2.933 2.933 0 0 0-2.93 2.93v5.859h8.525l-0.977 5.859h-7.548v17.774h13.184a7.332 7.332 0 0 0 7.324-7.324v-35.352a7.332 7.332 0 0 0-7.324-7.324h-35.352a7.332 7.332 0 0 0-7.324 7.324v35.352a7.332 7.332 0 0 0 7.324 7.324zm-4.394-42.676a4.4 4.4 0 0 1 4.394-4.394h35.352a4.4 4.4 0 0 1 4.394 4.394v35.352a4.4 4.4 0 0 1-4.395 4.395h-10.253v-11.915h7.1l1.953-11.719h-9.053v-2.93h8.789v-11.718h-10.254a10.265 10.265 0 0 0-10.257 10.254v4.395h-5.856v11.718h5.856v11.914h-13.376a4.4 4.4 0 0 1-4.394-4.394z" fill="#00b3e3"/>
</svg>
