<svg xmlns="http://www.w3.org/2000/svg" width="50" height="50" viewBox="0 0 50 50">
  <g id="instagram" transform="translate(-27 74)">
    <g id="Group_2" data-name="Group 2" transform="translate(27 -74)">
      <path id="Path_1" data-name="Path 1" d="M39.561,0H10.439A10.451,10.451,0,0,0,0,10.439V39.561A10.451,10.451,0,0,0,10.439,50H39.561A10.451,10.451,0,0,0,50,39.561V10.439A10.451,10.451,0,0,0,39.561,0ZM10.439,47.07a7.518,7.518,0,0,1-7.51-7.51V19.955H10.7a15.575,15.575,0,1,0,28.609,0H47.07V39.561a7.518,7.518,0,0,1-7.51,7.51ZM39.561,2.93a7.518,7.518,0,0,1,7.51,7.51v6.586H37.641a15.56,15.56,0,0,0-25.282,0H2.93V10.439a7.518,7.518,0,0,1,7.51-7.51ZM37.645,26.113A12.645,12.645,0,1,1,25,13.468,12.659,12.659,0,0,1,37.645,26.113Z" fill="#00b3e3"/>
      <path id="Path_3" data-name="Path 3" d="M164.882,186.278a10,10,0,1,0,10-10A10.011,10.011,0,0,0,164.882,186.278Zm16.708,0a6.708,6.708,0,1,1-6.708-6.708A6.715,6.715,0,0,1,181.59,186.278Z" transform="translate(-149.828 -160.829)" fill="#00b3e3"/>
    </g>
  </g>
</svg>
