<svg xmlns="http://www.w3.org/2000/svg" xmlns:xlink="http://www.w3.org/1999/xlink" width="1024" zoomAndPan="magnify" viewBox="0 0 768 767.999994" height="1024" preserveAspectRatio="xMidYMid meet" version="1.0"><path fill="rgb(100%, 100%, 100%)" d="M 702.621094 160.828125 C 717.628906 128.96875 711.707031 89.734375 687.777344 63.859375 C 662.03125 36.007812 621.394531 26.101562 585.886719 17.710938 C 543.007812 7.578125 499.007812 1.773438 454.976562 0.375 C 430.027344 -0.417969 405.035156 0.210938 380.171875 2.277344 C 367.644531 3.3125 355.152344 4.742188 342.714844 6.476562 C 337.507812 7.203125 331.980469 7.613281 326.648438 8.601562 C 320.917969 8.40625 315.210938 8.457031 309.488281 9.5625 C 299.953125 11.402344 291 14.882812 282.265625 19.082031 C 264.460938 27.632812 248.261719 40.113281 234.5 54.21875 C 203.761719 85.734375 185.078125 126.144531 175.722656 168.84375 C 153.402344 270.714844 181.105469 375.640625 161.578125 477.675781 C 156.898438 502.113281 149.730469 527.972656 132.710938 546.894531 C 115.753906 565.75 89.449219 574.125 65.796875 563.191406 C 59.4375 560.253906 54.03125 565.359375 54.265625 570.585938 C 52.226562 571.648438 51.328125 574.359375 52.359375 576.785156 C 59.65625 593.988281 83.441406 605.699219 98.984375 614.25 C 117.300781 624.332031 136.792969 632.453125 156.859375 638.351562 C 176.417969 644.097656 196.632812 647.703125 216.964844 649.253906 C 227.597656 650.0625 238.273438 650.25 248.933594 649.804688 C 255.609375 649.527344 262.945312 649.746094 269.230469 647.453125 C 275.371094 663.171875 281.945312 678.734375 289.257812 693.945312 C 298.285156 712.726562 307.449219 733.558594 320.835938 749.660156 C 322.800781 752.027344 325.855469 752.222656 328.523438 751.226562 C 328.582031 751.855469 328.589844 752.464844 328.824219 753.125 C 329.738281 755.71875 332.121094 758.144531 335.03125 758.34375 C 334.621094 758.921875 334.171875 759.464844 333.835938 760.101562 C 333.292969 761.148438 333.46875 762.820312 334.691406 763.363281 C 344.320312 767.625 356.109375 762.429688 365.578125 759.390625 C 378.804688 755.148438 391.910156 750.488281 405.035156 745.964844 C 430.664062 737.136719 456.273438 728.269531 481.875 719.367188 C 530.851562 702.34375 580.273438 686.222656 628.933594 668.285156 C 628.875 668.519531 628.800781 668.730469 628.75 668.964844 C 627.789062 673.046875 632.617188 675.832031 635.6875 673.003906 C 639.917969 669.105469 643.835938 665.121094 647.25 660.480469 C 650.710938 655.769531 653.507812 650.765625 656.417969 645.695312 C 656.535156 645.496094 656.660156 645.289062 656.769531 645.085938 C 658.015625 644.507812 659.203125 643.847656 660.277344 643.019531 C 661.554688 642.023438 661.472656 639.859375 660.542969 638.621094 C 663.746094 633.132812 666.867188 627.492188 669.292969 621.671875 C 672.890625 621.4375 676.429688 621.027344 679.820312 620.214844 C 687.023438 618.5 686.746094 607.773438 679.820312 605.910156 C 676.515625 605.011719 673.035156 604.542969 669.480469 604.300781 C 673.546875 603.625 675.703125 599.191406 673.90625 595.050781 C 671.085938 588.582031 665.144531 584.484375 660.265625 579.582031 C 654.847656 574.132812 649.742188 568.351562 645.074219 562.246094 C 636.128906 550.550781 628.625 537.707031 622.375 524.390625 C 609.1875 496.273438 601.917969 465.175781 599.515625 434.289062 C 596.691406 397.988281 600.335938 361.4375 607.015625 325.746094 C 610.453125 307.359375 614.609375 289.097656 619.121094 270.941406 C 623.246094 254.335938 629.117188 237.152344 630.441406 219.96875 C 634.898438 218.234375 637.5 212.597656 635.359375 208.640625 C 646.796875 208.238281 658.535156 203.386719 668 197.914062 C 682.75 189.390625 695.339844 176.28125 702.621094 160.828125 Z M 250.605469 633.113281 C 240.515625 633.601562 230.398438 633.507812 220.308594 632.855469 C 200.304688 631.574219 180.5 627.945312 161.273438 622.28125 C 142.550781 616.769531 124.453125 609.320312 107.320312 599.976562 C 99.128906 595.507812 91.238281 590.546875 83.523438 585.304688 C 113.8125 587.496094 144.523438 564.335938 158.847656 538.410156 C 182.742188 495.167969 185.078125 440.136719 185.304688 391.90625 C 185.765625 293.277344 166.019531 180.171875 224.335938 92.886719 C 237.636719 72.976562 254.773438 55.199219 274.953125 42.191406 C 284.480469 36.050781 294.511719 31.1875 305.0625 27.113281 C 307.253906 26.269531 309.449219 25.375 311.640625 24.496094 C 311.875 24.621094 312.109375 24.773438 312.359375 24.863281 C 320.171875 27.707031 327.46875 25.53125 335.441406 24.269531 C 345.734375 22.648438 356.074219 21.308594 366.441406 20.21875 C 385.382812 18.238281 404.417969 17.082031 423.460938 16.773438 C 462.765625 16.128906 502.171875 18.964844 540.933594 25.523438 C 598.363281 35.238281 701.671875 51.703125 694.078125 130.902344 C 692.386719 148.503906 683.734375 164.59375 670.367188 176.078125 C 655.75 188.636719 639.03125 190.308594 621.816406 196.769531 C 619.914062 197.480469 618.96875 198.945312 618.550781 200.5 C 612.351562 198.28125 606.070312 196.234375 599.703125 194.367188 C 601.808594 193.796875 603.945312 193.289062 605.976562 192.535156 C 618.769531 187.792969 630.238281 179.542969 635.945312 166.84375 C 637.636719 163.085938 633.8125 157.523438 629.59375 160.492188 C 620.441406 166.933594 610.769531 173.484375 600.394531 177.804688 C 600.238281 177.863281 599.566406 178.121094 599.585938 178.113281 C 598.855469 178.398438 598.121094 178.664062 597.382812 178.914062 C 596.0625 179.375 594.714844 179.800781 593.367188 180.1875 C 590.683594 180.949219 587.964844 181.652344 585.21875 182.179688 C 582.367188 182.722656 579.5625 183.476562 576.695312 183.953125 C 573.898438 184.421875 571.253906 184.644531 568.9375 186.210938 C 565.464844 185.367188 561.96875 184.503906 558.53125 183.667969 C 533.019531 177.519531 507.207031 172.617188 481.222656 168.960938 C 432.429688 162.109375 378.839844 155.976562 329.886719 164.910156 C 329.746094 164.667969 329.570312 164.492188 329.34375 164.34375 C 329.007812 163.589844 328.523438 162.910156 327.777344 162.527344 C 322.660156 159.882812 316.164062 163.113281 311.253906 165.246094 C 307.78125 166.75 304.394531 168.214844 300.847656 169.578125 C 303.179688 167.789062 305.546875 166.039062 307.78125 164.132812 C 321.804688 152.226562 333.433594 136.359375 338.855469 118.65625 C 339.859375 115.382812 340.546875 112.054688 341.066406 108.707031 C 342.878906 102.515625 343.875 96.132812 343.484375 89.339844 C 342.789062 77.203125 338.378906 64.886719 328.714844 57.007812 C 325.769531 54.605469 322.632812 52.773438 319.386719 51.359375 C 313.003906 47.050781 305.480469 44.875 297.140625 46.441406 C 295.820312 46.691406 295.164062 47.542969 294.796875 48.539062 C 283.585938 50.320312 272.675781 55.777344 264.160156 63.339844 C 258.8125 68.082031 254.246094 73.664062 250.128906 79.484375 C 246.054688 85.25 241.738281 91.851562 239.695312 98.660156 C 238.816406 101.582031 242.589844 103.589844 244.691406 101.5625 C 249.792969 96.644531 253.675781 90.261719 258.3125 84.882812 C 262.660156 79.835938 267.449219 75.027344 272.945312 71.226562 C 282.332031 64.746094 294.4375 60.804688 305.851562 63.707031 C 307.765625 64.191406 309.523438 64.851562 311.214844 65.597656 C 315.796875 70.117188 319.703125 75.226562 322.164062 81.242188 C 327.652344 94.628906 325.613281 109.601562 319.730469 122.503906 C 313.378906 136.433594 302.855469 147.828125 291.34375 157.691406 C 284.992188 163.128906 278.28125 168.140625 271.664062 173.242188 C 269.230469 175.125 266.117188 176.941406 263.539062 179.132812 C 261.65625 178.515625 259.515625 178.789062 257.992188 180.320312 C 257.808594 180.503906 257.632812 180.679688 257.457031 180.863281 C 258.328125 180.355469 259.199219 179.851562 260.066406 179.34375 C 254.914062 181.050781 253.601562 186.828125 252.152344 191.515625 C 250.941406 195.429688 249.792969 199.335938 248.730469 203.292969 C 246.554688 211.367188 245.050781 219.691406 244.144531 228 C 243.980469 229.539062 244.640625 230.75 245.636719 231.636719 C 244.253906 236.597656 242.941406 241.511719 241.570312 246.203125 C 236.398438 263.832031 233.269531 282.152344 230.527344 300.289062 C 224.894531 337.476562 222.292969 375.066406 222.960938 412.671875 C 224.292969 487.355469 237.886719 561.960938 263.390625 632.203125 C 259.171875 632.253906 254.871094 632.90625 250.605469 633.113281 Z M 308.199219 694.824219 C 299.757812 677.964844 292.046875 660.746094 285.175781 643.195312 C 271.738281 608.878906 261.207031 573.441406 253.625 537.375 C 238.382812 464.832031 235.511719 389.722656 244.859375 316.183594 C 247.449219 295.765625 251.433594 275.601562 255.457031 255.421875 C 259.355469 235.871094 267.046875 215.097656 267.273438 195.128906 C 267.28125 194.453125 267.027344 193.964844 266.734375 193.515625 C 266.871094 192.929688 267.003906 192.351562 267.121094 191.765625 C 268.417969 192.863281 270.050781 193.589844 272.117188 193.515625 C 276.691406 193.347656 281.386719 192.535156 286.03125 191.449219 C 284.390625 195.371094 283.027344 199.421875 281.613281 203.109375 C 276.792969 215.734375 272.558594 228.59375 268.988281 241.628906 C 261.851562 267.613281 256.578125 294.324219 253.808594 321.128906 C 251.03125 347.992188 249.84375 375.105469 250.941406 402.097656 C 251.46875 415.1875 252.460938 428.257812 254.285156 441.230469 C 256.21875 454.976562 260.679688 467.527344 263.691406 480.929688 C 263.757812 481.222656 264.175781 481.085938 264.132812 480.804688 C 262.117188 467.207031 262.5625 452.667969 261.617188 438.898438 C 260.738281 426.03125 260.027344 413.148438 259.882812 400.253906 C 259.597656 373.667969 261.304688 347.113281 265.714844 320.886719 C 269.898438 295.996094 275.460938 271.492188 283.152344 247.441406 C 287.082031 235.136719 291.375 222.929688 296.101562 210.90625 C 299.265625 202.851562 304.242188 194.148438 305.289062 185.308594 C 309.65625 183.617188 313.972656 181.769531 318.046875 179.46875 C 313.289062 189.867188 309.78125 201.050781 306.585938 211.660156 C 301.296875 229.238281 297.617188 247.214844 294.496094 265.292969 C 288.429688 300.421875 285.328125 336.121094 284.957031 371.753906 C 284.207031 442.878906 294.496094 514.335938 315.582031 582.28125 C 321.546875 601.5 328.382812 620.449219 336.078125 639.039062 C 343.375 656.648438 350.167969 676.777344 362.683594 691.375 C 363.929688 692.824219 365.4375 693.375 366.941406 693.375 C 366.507812 693.535156 366.089844 693.609375 365.628906 693.917969 C 364.140625 694.90625 363.128906 696.0625 362.03125 697.433594 C 360 699.984375 358.050781 702.535156 356.21875 705.238281 C 352.929688 710.097656 349.640625 714.960938 346.417969 719.863281 C 345.765625 717.9375 344.914062 716.023438 343.992188 714.0625 C 340.277344 706.199219 336.078125 698.527344 332.214844 690.730469 C 324.742188 675.640625 317.453125 660.429688 311.304688 644.742188 C 298.949219 613.261719 290.230469 580.492188 279.417969 548.527344 C 279.410156 548.492188 279.351562 548.492188 279.351562 548.535156 C 280.355469 582.699219 289 615.503906 299.71875 647.929688 C 305.171875 664.429688 311.011719 680.792969 317.855469 696.773438 C 321.117188 704.394531 324.558594 712.03125 328.429688 719.367188 C 330.90625 724.070312 333.777344 729.449219 338.496094 731.925781 C 337.851562 732.914062 337.199219 733.898438 336.554688 734.886719 C 335.242188 736.886719 333.9375 738.886719 332.625 740.878906 C 325.777344 725.03125 315.957031 710.308594 308.199219 694.824219 Z M 371.042969 691.851562 C 371.167969 692.027344 371.308594 692.195312 371.460938 692.355469 C 371.144531 692.355469 370.816406 692.328125 370.523438 692.40625 C 370.414062 692.4375 370.324219 692.445312 370.222656 692.472656 C 370.515625 692.304688 370.765625 692.070312 371.042969 691.851562 Z M 477.433594 703.304688 C 451.832031 712.207031 426.230469 721.132812 400.652344 730.101562 C 387.53125 734.703125 374.355469 739.179688 361.335938 744.054688 C 356.945312 745.703125 351.65625 747.3125 346.78125 749.511719 C 347.925781 747.730469 349.070312 745.957031 350.21875 744.183594 C 353.53125 739.046875 356.84375 733.910156 360.164062 728.78125 C 363.378906 723.800781 366.523438 718.78125 369.660156 713.753906 C 371.242188 711.226562 372.683594 708.683594 374.0625 706.03125 C 374.859375 704.503906 375.628906 702.980469 375.96875 701.28125 C 376.449219 698.90625 375.703125 697.414062 375.394531 695.175781 C 375.335938 694.773438 375.125 694.4375 374.917969 694.113281 C 375.46875 694.171875 376.054688 694.179688 376.664062 694.070312 C 389.230469 691.953125 400.917969 684.296875 412.324219 678.910156 C 423.996094 673.40625 435.851562 668.3125 447.839844 663.550781 C 472.570312 653.738281 497.957031 645.570312 523.765625 639.097656 C 549.445312 632.65625 575.5625 627.84375 601.878906 624.933594 C 614.796875 623.503906 627.753906 622.488281 640.730469 621.894531 C 644.3125 621.738281 648.019531 621.761719 651.757812 621.820312 C 649.398438 625.484375 647.183594 629.234375 645.015625 632.949219 C 636.574219 632.371094 627.253906 633.792969 620.609375 634.351562 C 606.710938 635.53125 592.890625 637.523438 579.253906 640.410156 C 565.265625 643.371094 551.335938 647.144531 537.929688 652.164062 C 523.933594 657.394531 512.070312 664.949219 499.058594 672.074219 C 498.96875 672.125 499.027344 672.292969 499.136719 672.25 C 512.320312 667.273438 526.703125 664.5625 540.355469 660.941406 C 553.777344 657.382812 567.265625 654.238281 580.96875 651.988281 C 595.023438 649.679688 609.246094 648.230469 623.480469 647.65625 C 627.320312 647.496094 631.835938 647.738281 636.472656 647.832031 C 636.273438 648.214844 636.070312 648.601562 635.878906 648.984375 C 634.984375 648.96875 634.070312 648.984375 633.042969 649.320312 C 580.816406 666.109375 529.246094 685.292969 477.433594 703.304688 Z M 601.953125 272.457031 C 597.015625 291.875 592.597656 311.417969 589.226562 331.167969 C 582.96875 367.769531 579.738281 405.234375 583.605469 442.285156 C 586.867188 473.574219 594.625 504.261719 607.992188 532.796875 C 614.703125 547.121094 622.925781 560.640625 632.597656 573.15625 C 640.816406 583.796875 652.6875 600.921875 666.507812 604.167969 C 657.875 603.910156 648.890625 604.878906 640.730469 605.257812 C 627.136719 605.875 613.558594 606.953125 600.027344 608.5 C 572.84375 611.613281 545.878906 616.417969 519.339844 623.074219 C 492.9375 629.703125 466.972656 638.109375 441.699219 648.242188 C 429.550781 653.109375 417.578125 658.414062 405.789062 664.085938 C 394.695312 669.421875 382.09375 674.726562 373.269531 683.628906 C 369.09375 667.984375 360.097656 653.394531 353.78125 638.535156 C 346.980469 622.53125 340.890625 606.21875 335.417969 589.703125 C 324.441406 556.550781 316.082031 522.53125 310.386719 488.074219 C 298.9375 418.929688 298.511719 347.75 309.046875 278.472656 C 311.898438 259.707031 315.816406 241.207031 319.613281 222.628906 C 322.84375 206.839844 327.644531 190.679688 329.492188 174.515625 C 329.609375 174.53125 329.703125 174.597656 329.820312 174.605469 C 354.558594 177.082031 379.742188 176.488281 404.574219 177.851562 C 430.035156 179.25 455.488281 181.660156 480.71875 185.355469 C 504.734375 188.886719 528.585938 193.496094 552.1875 199.160156 C 574.601562 204.550781 596.332031 212.105469 618.46875 218.253906 C 610.378906 235.078125 606.503906 254.5625 601.953125 272.457031 Z M 601.953125 272.457031 " fill-opacity="1" fill-rule="nonzero"/><path fill="rgb(100%, 100%, 100%)" d="M 525.464844 256.769531 C 518.980469 254.753906 512.4375 252.929688 505.84375 251.308594 C 491.957031 247.886719 477.851562 245.28125 463.644531 243.683594 C 449.195312 242.0625 434.644531 241.300781 420.113281 241.746094 C 409.628906 242.0625 396.59375 242.320312 386.203125 246.1875 C 386.46875 245.390625 386.714844 244.582031 387.105469 243.820312 C 387.289062 243.375 386.578125 242.964844 386.285156 243.34375 C 384.890625 245.457031 383.097656 247.199219 380.933594 248.570312 C 378.75 249.835938 379.308594 253.054688 381.609375 253.78125 C 393.304688 257.457031 407.921875 255.78125 420.121094 256.167969 C 433.949219 256.601562 447.816406 257.566406 461.511719 259.488281 C 474.957031 261.386719 488.308594 263.855469 501.476562 267.195312 C 508.0625 268.859375 514.589844 270.714844 521.0625 272.773438 C 527.164062 274.707031 533.3125 277.984375 539.789062 277.492188 C 545.671875 277.039062 549.367188 269.996094 544.785156 265.445312 C 539.644531 260.359375 532.207031 258.859375 525.464844 256.769531 Z M 525.464844 256.769531 " fill-opacity="1" fill-rule="nonzero"/><path fill="rgb(100%, 100%, 100%)" d="M 413.386719 344.613281 C 425.601562 345.960938 437.78125 347.800781 449.832031 350.203125 C 461.746094 352.578125 473.542969 355.539062 485.15625 359.085938 C 490.960938 360.859375 496.726562 362.777344 502.441406 364.832031 C 508.003906 366.839844 513.191406 369.476562 519.230469 369.265625 C 525.171875 369.066406 528.292969 361.90625 524.085938 357.554688 C 519.425781 352.734375 513.03125 351.003906 506.859375 348.796875 C 501.132812 346.753906 495.371094 344.855469 489.554688 343.097656 C 477.507812 339.46875 465.277344 336.457031 452.925781 334.078125 C 440.703125 331.730469 428.386719 330.039062 415.980469 329.058594 C 404.398438 328.148438 391.082031 326.875 380.429688 332.289062 C 378.121094 333.460938 378.171875 337.160156 380.429688 338.339844 C 390.320312 343.515625 402.484375 343.417969 413.386719 344.613281 Z M 413.386719 344.613281 " fill-opacity="1" fill-rule="nonzero"/><path fill="rgb(100%, 100%, 100%)" d="M 447.1875 429.242188 C 459.015625 429.101562 470.847656 428.949219 482.679688 428.808594 C 488.59375 428.734375 494.507812 428.675781 500.421875 428.589844 C 507.191406 428.5 512.027344 427.886719 518.253906 425.285156 C 523.28125 423.179688 523.523438 416.792969 518.253906 414.761719 C 511.917969 412.3125 507.324219 411.824219 500.421875 411.933594 C 494.960938 412.019531 489.503906 412.117188 484.042969 412.210938 C 471.757812 412.410156 459.46875 412.621094 447.1875 412.820312 C 423.734375 413.214844 399.261719 411.632812 376.824219 419.328125 C 374.214844 420.226562 374.097656 423.898438 376.824219 424.75 C 399.4375 431.785156 423.777344 429.527344 447.1875 429.242188 Z M 447.1875 429.242188 " fill-opacity="1" fill-rule="nonzero"/><path fill="rgb(100%, 100%, 100%)" d="M 517.617188 493.125 C 510.941406 493.46875 504.265625 494.121094 497.621094 494.882812 C 485.246094 496.296875 472.929688 498.222656 460.742188 500.757812 C 448.46875 503.316406 436.300781 506.527344 424.371094 510.378906 C 416.003906 513.070312 397.664062 517.394531 395.625 527.621094 C 395.371094 528.867188 395.816406 529.886719 396.835938 530.605469 C 404.691406 536.144531 420.574219 528.507812 428.6875 526.046875 C 440.300781 522.53125 452.046875 519.53125 463.921875 517.027344 C 475.875 514.511719 487.949219 512.542969 500.105469 511.246094 C 505.929688 510.628906 511.761719 510.191406 517.609375 509.792969 C 524.585938 509.304688 528.902344 508.226562 534.761719 504.460938 C 537.363281 502.789062 537.570312 498.867188 534.761719 497.242188 C 528.835938 493.804688 524.5625 492.765625 517.617188 493.125 Z M 517.617188 493.125 " fill-opacity="1" fill-rule="nonzero"/><path fill="rgb(100%, 100%, 100%)" d="M 395.246094 55.222656 C 436.914062 60.820312 478.527344 63.171875 519.785156 72.023438 C 540.105469 76.382812 560.226562 81.753906 580.046875 88.003906 C 589.972656 91.132812 599.886719 94.277344 609.707031 97.707031 C 619.707031 101.195312 628.601562 104.699219 639.300781 103.363281 C 642.269531 102.992188 643.644531 99.992188 641.675781 97.613281 C 629.292969 82.648438 604.160156 78.03125 586.191406 73.070312 C 564.863281 67.179688 543.203125 62.542969 521.363281 58.964844 C 480.359375 52.253906 436.585938 47.292969 395.246094 53.398438 C 394.351562 53.535156 394.335938 55.105469 395.246094 55.222656 Z M 395.246094 55.222656 " fill-opacity="1" fill-rule="nonzero"/></svg>