<svg xmlns="http://www.w3.org/2000/svg" xmlns:xlink="http://www.w3.org/1999/xlink" width="1024" zoomAndPan="magnify" viewBox="0 0 768 767.999994" height="1024" preserveAspectRatio="xMidYMid meet" version="1.0"><path fill="rgb(100%, 100%, 100%)" d="M 602.289062 309.0625 C 631.804688 217.773438 616.335938 108.027344 535.882812 47.460938 C 496.851562 18.078125 448.207031 4.28125 399.851562 2.0625 C 350.226562 -0.222656 296.390625 6.90625 250.4375 26.414062 C 206.859375 44.917969 176.546875 78.136719 159.1875 121.925781 C 141.699219 166.027344 136.417969 215.695312 140.480469 262.757812 C 145.046875 315.800781 161.726562 367.890625 189.921875 413.125 C 217.125 456.769531 260.246094 495.726562 266.277344 549.394531 C 266.277344 549.410156 266.285156 549.417969 266.285156 549.4375 C 265.664062 550.589844 265.097656 551.746094 264.625 552.820312 C 262.316406 558.054688 261.003906 563.574219 260.84375 569.316406 C 260.695312 574.59375 261.652344 580.015625 263.601562 584.910156 C 264.773438 587.84375 266.09375 590.6875 267.664062 593.429688 C 268.453125 594.808594 269.277344 596.320312 270.199219 597.761719 C 270.050781 598.367188 269.859375 599.007812 269.734375 599.597656 C 268.4375 605.679688 268.054688 612.082031 268.679688 618.273438 C 269.292969 624.382812 270.523438 630.367188 272.832031 636.078125 C 274.300781 639.71875 276.179688 644.007812 278.570312 647.695312 C 275.824219 650.929688 274.195312 655.367188 273.464844 659.324219 C 272.367188 665.242188 272.398438 671.351562 274.152344 677.152344 C 275.773438 682.53125 278.605469 687.351562 282.292969 691.558594 C 283.429688 692.863281 284.910156 694.324219 286.546875 695.6875 C 286.457031 697.132812 286.53125 698.621094 286.863281 700.109375 C 287.792969 704.273438 290.410156 707.472656 293.65625 709.96875 C 293.285156 710.757812 293.027344 711.648438 293.066406 712.734375 C 293.796875 730.996094 310.171875 746.429688 325.046875 754.882812 C 344.511719 765.9375 367.519531 767.949219 389.367188 765.082031 C 411.082031 762.230469 434.074219 755.882812 451.753906 742.457031 C 459.585938 736.507812 466.449219 729.050781 471.015625 720.28125 C 473.308594 715.886719 475.300781 711.082031 476.148438 706.1875 C 477.082031 700.839844 475.742188 698.53125 473.492188 693.828125 C 471.804688 690.300781 466.753906 690.902344 464.917969 693.828125 C 463.546875 696.003906 462.386719 697.691406 461.40625 699.695312 C 461.132812 697.773438 459.992188 696.054688 457.765625 695.613281 C 445.382812 693.152344 431.601562 699.613281 419.515625 701.972656 C 405.058594 704.796875 390.398438 706.300781 375.679688 706.609375 C 361.480469 706.910156 347.21875 706.152344 333.164062 704.117188 C 326.261719 703.117188 319.382812 701.871094 312.578125 700.316406 C 309.820312 699.6875 304.960938 699.222656 303.027344 696.917969 C 303.019531 696.910156 303.019531 696.894531 303.011719 696.886719 C 304.304688 695.257812 304.972656 693.203125 304.289062 690.902344 C 303.316406 687.632812 300.785156 685.523438 298.09375 683.660156 C 297.785156 683.445312 297.476562 683.230469 297.164062 683.019531 C 297.113281 682.980469 297.136719 683.011719 297.070312 682.945312 C 296.308594 682.28125 295.558594 681.609375 294.851562 680.886719 C 294.230469 680.246094 293.648438 679.5625 293.082031 678.875 C 293.035156 678.800781 293.050781 678.824219 292.941406 678.65625 C 292.636719 678.183594 292.320312 677.726562 292.027344 677.246094 C 291.503906 676.378906 291.046875 675.484375 290.59375 674.585938 C 290.542969 674.476562 290.566406 674.527344 290.535156 674.453125 C 290.375 674.003906 290.203125 673.5625 290.058594 673.113281 C 289.777344 672.25 289.546875 671.375 289.355469 670.496094 C 289.253906 670.03125 289.171875 669.554688 289.097656 669.082031 C 289.097656 668.992188 289.089844 668.964844 289.078125 668.726562 C 289.046875 667.636719 288.988281 666.554688 289.039062 665.46875 C 289.054688 664.984375 289.128906 664.503906 289.136719 664.019531 C 289.136719 663.914062 289.128906 663.953125 289.121094 663.914062 C 289.136719 663.820312 289.148438 663.835938 289.179688 663.671875 C 289.585938 661.652344 290.035156 659.648438 290.734375 657.710938 C 291.066406 656.78125 291.421875 655.859375 291.746094 654.925781 C 295.402344 656.671875 299.929688 657.4375 303.078125 658.054688 C 311.308594 659.671875 319.757812 660.472656 328.097656 661.269531 C 336.070312 662.035156 344.054688 662.566406 352.070312 662.882812 C 356.183594 663.039062 359.996094 662.800781 364.074219 662.285156 C 366.175781 662.019531 368.019531 661.71875 370.011719 661.054688 C 372.082031 660.371094 374.09375 659.082031 376.175781 658.527344 C 379.574219 657.613281 379.640625 652.46875 376.175781 651.578125 C 372.355469 650.597656 369.132812 648.527344 365.171875 647.886719 C 361.035156 647.222656 357.105469 646.707031 352.917969 646.566406 C 344.917969 646.300781 336.925781 645.867188 328.945312 645.3125 C 320.976562 644.753906 313.035156 643.78125 305.0625 643.300781 C 302.378906 643.132812 298.890625 642.75 295.558594 642.949219 C 294.371094 640.746094 293.015625 639.46875 291.480469 636.925781 C 290.792969 635.777344 290.136719 634.597656 289.535156 633.402344 C 289.269531 632.867188 289.011719 632.328125 288.757812 631.789062 C 288.714844 631.695312 288.574219 631.378906 288.480469 631.179688 C 287.527344 628.878906 286.769531 626.46875 286.15625 624.050781 C 285.824219 622.746094 285.542969 621.429688 285.308594 620.101562 C 285.21875 619.613281 285.144531 619.121094 285.066406 618.628906 C 285.058594 618.496094 284.96875 617.632812 284.941406 617.390625 C 284.710938 614.855469 284.652344 612.3125 284.761719 609.769531 C 284.808594 608.574219 284.910156 607.386719 285.035156 606.195312 C 285.050781 606.0625 285.09375 605.765625 285.117188 605.566406 C 285.226562 604.875 285.351562 604.175781 285.476562 603.488281 C 285.523438 603.203125 285.609375 602.929688 285.664062 602.648438 C 288.765625 603.84375 291.855469 605.058594 295.003906 606.070312 C 304.714844 609.222656 314.65625 611.566406 324.734375 613.160156 C 334.683594 614.742188 344.777344 615.945312 354.863281 616.039062 C 365.460938 616.128906 375.097656 614.226562 385.15625 611.015625 C 388.347656 610.003906 387.417969 605.929688 384.417969 605.53125 C 374.515625 604.21875 364.863281 602.964844 354.871094 602.523438 C 345.027344 602.089844 335.191406 601.574219 325.40625 600.34375 C 315.460938 599.097656 305.578125 597.371094 295.773438 595.316406 C 293.066406 594.75 290.382812 594.109375 287.683594 593.496094 C 288.058594 591.269531 288.257812 589.015625 287.835938 586.679688 C 287.261719 583.554688 283.480469 581.792969 280.617188 582.574219 C 280.605469 582.574219 280.597656 582.582031 280.589844 582.589844 C 280.101562 581.71875 279.617188 580.84375 279.226562 579.929688 C 279.179688 579.789062 279.113281 579.640625 278.96875 579.265625 C 278.761719 578.691406 278.5625 578.121094 278.382812 577.539062 C 278.058594 576.507812 277.78125 575.46875 277.566406 574.414062 C 277.492188 574.039062 277.425781 573.65625 277.359375 573.273438 C 277.351562 573.148438 277.34375 573.097656 277.308594 572.785156 C 277.269531 571.753906 277.183594 570.738281 277.203125 569.707031 C 277.210938 568.675781 277.285156 567.65625 277.375 566.632812 C 277.226562 568.378906 277.617188 565.335938 277.683594 564.996094 C 278.097656 563.082031 278.695312 561.203125 279.417969 559.386719 C 279.59375 559.042969 280.199219 557.722656 280.292969 557.539062 C 280.765625 556.625 281.289062 555.746094 281.84375 554.878906 C 282.566406 553.765625 283.257812 552.726562 283.898438 551.648438 C 292.660156 555.085938 302.894531 557.175781 307.148438 558.289062 C 325.488281 563.058594 344.421875 566.058594 363.308594 567.554688 C 382.101562 569.042969 401.03125 568.886719 419.796875 567.105469 C 429.324219 566.199219 438.828125 564.910156 448.246094 563.226562 C 452.351562 562.492188 457.183594 562.070312 461.65625 560.957031 C 462.101562 561.460938 462.550781 561.96875 462.992188 562.484375 C 463.339844 562.890625 463.671875 563.308594 464.011719 563.730469 C 463.421875 563 464.1875 563.964844 464.753906 564.6875 C 464.613281 565.675781 464.371094 566.625 464.238281 567.621094 C 463.679688 571.878906 466.097656 574.304688 469.222656 575.09375 C 469.222656 575.625 469.230469 576.15625 469.1875 576.691406 C 469.148438 576.914062 469.089844 577.320312 469.023438 577.585938 C 468.90625 578.101562 468.765625 578.609375 468.617188 579.117188 C 468.464844 579.625 468.292969 580.121094 468.109375 580.621094 C 468.066406 580.738281 468.050781 580.789062 468.035156 580.84375 C 467.976562 580.960938 467.925781 581.054688 467.835938 581.226562 C 467.34375 582.199219 466.835938 583.15625 466.273438 584.085938 C 465.632812 585.152344 464.9375 586.191406 464.203125 587.195312 C 464.144531 587.277344 463.738281 587.828125 463.582031 588.035156 C 463.355469 588.316406 462.75 589.082031 462.667969 589.183594 C 460.582031 591.851562 458.886719 594.300781 457.824219 597.570312 C 457.699219 597.960938 457.683594 598.359375 457.652344 598.765625 C 455.082031 599.511719 452.515625 600.269531 449.992188 601.152344 C 448.332031 601.734375 446.726562 602.347656 445.097656 603.046875 C 442.929688 603.976562 441.824219 605.480469 441.054688 607.691406 C 440.613281 608.964844 441.085938 610.734375 442.09375 611.625 C 443.878906 613.203125 445.589844 613.941406 447.972656 613.675781 C 449.734375 613.484375 451.46875 613.203125 453.214844 612.886719 C 455.5 612.480469 457.757812 611.957031 460.019531 611.441406 C 460.027344 611.515625 460.019531 611.582031 460.027344 611.65625 C 460.433594 616.085938 460.882812 620.527344 460.683594 624.988281 C 460.632812 626.101562 460.558594 627.226562 460.457031 628.339844 C 460.410156 628.878906 460.359375 629.417969 460.292969 629.960938 C 460.277344 630.09375 460.265625 630.101562 460.242188 630.316406 C 459.859375 632.519531 459.410156 634.707031 458.804688 636.859375 C 458.117188 639.316406 457.617188 641.695312 457.277344 644.222656 C 456.820312 644.207031 456.363281 644.179688 455.90625 644.179688 C 453.679688 644.171875 451.453125 644.539062 449.261719 644.910156 C 445.398438 645.570312 441.550781 646.566406 437.796875 647.679688 C 434.027344 648.800781 430.238281 649.859375 426.550781 651.21875 C 422.636719 652.667969 419.039062 654.679688 415.3125 656.515625 C 413.691406 657.3125 414.511719 659.863281 416.214844 659.839844 C 420.359375 659.78125 424.441406 659.929688 428.566406 659.441406 C 432.582031 658.96875 436.535156 658.160156 440.496094 657.4375 C 444.34375 656.730469 448.230469 655.875 451.96875 654.710938 C 454.253906 654.003906 456.339844 653.015625 458.382812 651.960938 C 458.472656 652.136719 458.523438 652.308594 458.640625 652.476562 C 458.605469 653.339844 458.65625 654.210938 458.730469 655.210938 C 458.8125 656.355469 458.898438 657.339844 459.046875 658.527344 C 458.839844 656.890625 459.078125 658.882812 459.113281 659.234375 C 459.410156 662.300781 459.46875 665.375 459.402344 668.460938 C 459.371094 669.945312 459.261719 671.425781 459.113281 672.914062 C 459.105469 673.003906 459.105469 673.03125 459.097656 673.097656 C 459.078125 673.207031 459.0625 673.28125 459.03125 673.453125 C 458.898438 674.242188 458.789062 675.042969 458.664062 675.832031 C 458.355469 677.792969 458.125 679.679688 458.132812 681.65625 C 458.140625 682.671875 457.984375 683.902344 458.496094 684.816406 C 458.621094 685.515625 458.695312 685.546875 458.738281 684.90625 C 458.796875 685.332031 458.839844 685.765625 458.878906 686.1875 C 459.351562 690.710938 464.136719 692.902344 467.683594 689.835938 C 467.933594 689.628906 468.175781 689.414062 468.417969 689.195312 C 468.472656 689.15625 468.523438 689.113281 468.714844 688.972656 C 470.160156 687.957031 471.164062 686.96875 472.054688 685.421875 C 473.085938 683.628906 473.941406 681.859375 474.4375 679.820312 C 475.335938 676.15625 475.652344 672.214844 475.660156 668.449219 C 475.660156 664.683594 475.113281 660.828125 474.171875 657.1875 C 473.667969 655.21875 472.953125 653.421875 472.097656 651.585938 C 471.714844 650.761719 471.363281 649.992188 470.851562 649.234375 C 470.832031 649.199219 470.800781 649.191406 470.785156 649.167969 C 472.210938 647.230469 473.359375 645.113281 474.148438 642.835938 C 475.785156 638.113281 476.523438 632.886719 476.898438 627.929688 C 477.421875 621.023438 477.03125 612.878906 473.757812 606.503906 C 474.171875 606.195312 474.855469 605.515625 475.011719 605.355469 C 475.558594 604.816406 476.347656 604.390625 476.972656 603.945312 C 479.429688 602.179688 478.941406 599.179688 476.722656 597.925781 C 478.167969 596.082031 479.515625 594.136719 480.703125 592.066406 C 483.84375 586.605469 485.976562 580.222656 485.554688 573.855469 C 485.261719 569.382812 483.933594 565.144531 481.839844 561.269531 C 489.339844 516.148438 512.476562 475.71875 536.101562 437.1875 C 561.328125 396.027344 587.335938 355.300781 602.289062 309.0625 Z M 354.769531 722.769531 C 372.945312 723.796875 391.15625 722.910156 409.179688 720.367188 C 418.070312 719.109375 426.890625 717.464844 435.613281 715.355469 C 443.917969 713.335938 453.230469 711.339844 459.394531 705.023438 C 458.363281 708.1875 457.195312 711.246094 455.472656 714.171875 C 451.394531 721.105469 445.621094 726.847656 438.96875 731.3125 C 423.941406 741.386719 404.960938 746.496094 387.167969 748.757812 C 369.890625 750.953125 351.289062 749.945312 335.558594 741.851562 C 323.414062 735.609375 316.574219 726.707031 309.40625 716.542969 C 324.011719 720.558594 340.109375 721.9375 354.769531 722.769531 Z M 419.796875 550.523438 C 407.601562 551.679688 395.347656 552.054688 383.105469 551.839844 C 384.558594 545.636719 384.136719 539.261719 383.894531 532.488281 C 383.511719 521.566406 383.015625 510.644531 382.566406 499.730469 C 381.652344 477.207031 380.703125 454.691406 379.742188 432.167969 C 378.808594 410.324219 377.878906 388.488281 376.949219 366.652344 C 376.484375 355.730469 376.019531 344.820312 375.554688 333.898438 C 375.128906 324.015625 376.441406 312.933594 371.640625 304.066406 C 371.292969 303.417969 370.769531 302.902344 370.195312 302.445312 C 367.097656 294.226562 361.765625 286.769531 354.894531 281.359375 C 345.375 273.855469 334.601562 272.339844 323.039062 270.078125 C 317.746094 269.050781 300.386719 263.746094 306.816406 255.042969 C 313.171875 246.441406 326.121094 252.382812 333.199219 256.257812 C 343.980469 262.160156 354.6875 269.363281 367.445312 269.53125 C 379.574219 269.699219 387.941406 262.074219 398.597656 257.878906 C 405.640625 255.101562 416.332031 256.605469 409.710938 266.15625 C 406.4375 270.871094 400.882812 273.363281 396.046875 276.164062 C 390.480469 279.390625 385.066406 282.929688 381.167969 288.140625 C 374.375 297.21875 371.632812 313.167969 384.816406 317.6875 C 388.273438 318.878906 392.300781 315.71875 392.125 312.121094 C 391.902344 307.464844 391.195312 302.71875 393.953125 298.621094 C 397.167969 293.851562 402.949219 291.347656 407.777344 288.539062 C 418.125 282.515625 427.96875 273.886719 428.402344 260.96875 C 428.800781 249.09375 419.15625 240.839844 407.917969 239.976562 C 395.464844 239.019531 386.601562 246.53125 375.804688 251.144531 C 363.027344 256.597656 351.449219 247.289062 340.640625 241.480469 C 329.433594 235.445312 316.867188 231.515625 304.605469 236.800781 C 294.421875 241.195312 287.101562 251.476562 289.585938 262.882812 C 292.070312 274.292969 302.613281 281.765625 313.277344 284.792969 C 326.269531 288.472656 339.628906 287.394531 349.214844 298.40625 C 352.925781 302.671875 355.285156 307.832031 356.832031 313.226562 C 357.320312 314.9375 357.761719 316.675781 358.21875 318.394531 C 358.257812 322.816406 358.734375 327.3125 358.925781 331.851562 C 359.390625 342.773438 359.855469 353.695312 360.320312 364.609375 C 361.28125 387.132812 362.238281 409.648438 363.203125 432.175781 C 364.132812 454.019531 365.070312 475.851562 366.042969 497.6875 C 366.53125 508.609375 366.988281 519.53125 367.503906 530.445312 C 367.84375 537.523438 367.769531 544.691406 369.699219 551.332031 C 366.980469 551.171875 364.265625 551.054688 361.550781 550.832031 C 342.234375 549.234375 323.371094 545.628906 304.597656 540.917969 C 301.890625 540.234375 289.246094 535.648438 279.859375 534.550781 C 272.640625 497.796875 249.050781 467.25 226.929688 437.410156 C 199.234375 400.058594 177.570312 360.296875 165.980469 314.972656 C 154.535156 270.1875 152.40625 222.769531 160.832031 177.261719 C 169.089844 132.628906 186.863281 86.757812 224.886719 59.320312 C 263.253906 31.632812 314.214844 22.332031 360.460938 19.109375 C 409.953125 15.652344 461.097656 22.359375 504.882812 46.929688 C 592.347656 96 615.628906 202.496094 589.664062 293.875 C 564.054688 384 490.628906 453.335938 468.757812 544.125 C 462.144531 542.414062 456.15625 544.890625 449.070312 546.277344 C 439.382812 548.15625 429.625 549.59375 419.796875 550.523438 Z M 419.796875 550.523438 " fill-opacity="1" fill-rule="nonzero"/><path fill="rgb(100%, 100%, 100%)" d="M 239.265625 74.296875 C 228.183594 82.558594 218.648438 92.367188 210.847656 103.804688 C 202.6875 115.765625 196.765625 129.511719 193.476562 143.601562 C 191.875 150.464844 190.851562 157.523438 190.402344 164.5625 C 190.171875 168.230469 190.046875 171.894531 190.394531 175.550781 C 190.800781 179.742188 192.378906 182.632812 194.199219 186.355469 C 196.367188 190.792969 203.261719 189.457031 204.457031 185.011719 C 205.339844 181.726562 206.402344 178.984375 206.59375 175.542969 C 206.777344 172.21875 206.691406 168.886719 206.875 165.550781 C 207.242188 158.960938 208.28125 152.460938 209.890625 146.054688 C 213.03125 133.609375 218.339844 121.933594 225.648438 111.394531 C 232.34375 101.742188 240.925781 93.03125 250.460938 86.183594 C 255.46875 82.59375 260.996094 79.777344 265.96875 76.144531 C 269.46875 73.582031 273.621094 70.085938 271.484375 65.28125 C 266.535156 54.140625 244.5625 70.351562 239.265625 74.296875 Z M 239.265625 74.296875 " fill-opacity="1" fill-rule="nonzero"/><path fill="rgb(100%, 100%, 100%)" d="M 237.195312 359.804688 C 237.195312 359.914062 237.363281 359.914062 237.363281 359.804688 C 237.363281 359.363281 237.363281 358.933594 237.363281 358.492188 C 237.363281 358.382812 237.195312 358.382812 237.195312 358.492188 C 237.195312 358.933594 237.195312 359.371094 237.195312 359.804688 Z M 237.195312 359.804688 " fill-opacity="1" fill-rule="nonzero"/></svg>