<svg xmlns="http://www.w3.org/2000/svg" xmlns:xlink="http://www.w3.org/1999/xlink" width="1024" zoomAndPan="magnify" viewBox="0 0 768 767.999994" height="1024" preserveAspectRatio="xMidYMid meet" version="1.0"><path fill="rgb(100%, 100%, 100%)" d="M 341.78125 520.359375 C 414.132812 546.511719 501.882812 518.609375 545.675781 455.636719 C 569.820312 420.816406 576.980469 377.503906 572.820312 335.9375 C 568.90625 297.121094 556.832031 257.972656 527.609375 230.648438 C 501.882812 206.578125 467.832031 193.832031 433.199219 193.914062 C 434.363281 193.332031 435.445312 192.832031 436.609375 192.25 C 438.027344 191.582031 436.945312 189.5 435.527344 189.75 C 423.539062 191.832031 411.96875 194.25 400.726562 197.832031 C 356.769531 208.160156 317.472656 237.398438 290.664062 272.964844 C 289.082031 275.046875 289.746094 277.628906 291.328125 279.378906 C 279.839844 295.039062 270.515625 312.28125 264.1875 330.855469 C 239.292969 403.410156 265.4375 492.703125 341.78125 520.359375 Z M 389.15625 218.488281 C 389.320312 218.40625 389.570312 218.320312 389.738281 218.238281 C 425.871094 205.660156 464.835938 208.328125 497.722656 228.566406 C 529.191406 247.976562 546.34375 280.296875 553.253906 315.863281 C 560.578125 353.679688 559.414062 394.910156 541.765625 429.8125 C 529.109375 454.886719 509.460938 474.960938 486.066406 489.121094 C 485.980469 489.203125 485.980469 489.203125 485.898438 489.203125 C 485.808594 489.261719 485.707031 489.304688 485.617188 489.363281 C 510.125 466.007812 526.9375 431.972656 535.777344 399.875 C 553.878906 334.179688 529.648438 256.320312 464.410156 227.382812 C 442.574219 217.695312 413.75 213.175781 388.472656 218.722656 C 388.53125 218.6875 388.589844 218.664062 388.648438 218.664062 C 388.820312 218.570312 388.988281 218.570312 389.15625 218.488281 Z M 275.425781 351.679688 C 284.335938 313.613281 306.816406 280.710938 335.953125 255.054688 C 342.433594 249.316406 349.167969 244.003906 356.226562 239.011719 C 356.925781 239.480469 357.777344 239.730469 358.660156 239.503906 C 374.453125 235.523438 389.296875 229.75 405.765625 228.699219 C 421.492188 227.699219 437.320312 229.851562 452.128906 235.289062 C 481.71875 246.152344 505.449219 269.339844 517.410156 298.453125 C 540.714844 355.1875 519.285156 428.097656 479.238281 472.371094 C 467.515625 485.332031 452.914062 495.175781 436.285156 500.625 C 428.484375 503.171875 420.492188 504.964844 412.417969 506.355469 C 403.832031 507.828125 396.5 510.269531 388.496094 512.9375 C 381.671875 512.519531 374.84375 511.6875 368.101562 510.351562 C 333.296875 503.605469 303.574219 483.949219 286.839844 452.210938 C 270.765625 421.816406 267.683594 384.917969 275.425781 351.679688 Z M 275.425781 351.679688 " fill-opacity="1" fill-rule="nonzero"/><path fill="rgb(100%, 100%, 100%)" d="M 44.382812 370.457031 C 39.746094 376.210938 40.496094 385.824219 40.453125 392.789062 C 40.402344 401.484375 40.644531 410.15625 40.960938 418.851562 C 41.269531 427.238281 41.636719 435.703125 42.402344 444.058594 C 43.125 451.929688 43.898438 462.15625 51.019531 466.890625 C 53.605469 468.613281 56.203125 468.15625 58.195312 466.664062 C 63.074219 471.027344 69.816406 473.269531 75.796875 475.625 C 82.972656 478.460938 90.230469 480.992188 97.535156 483.488281 C 104.535156 485.878906 111.554688 488.53125 118.714844 490.386719 C 122.078125 491.261719 125.757812 492.179688 129.414062 492.511719 C 129.46875 492.769531 129.480469 493.035156 129.535156 493.285156 C 130.027344 495.308594 130.71875 497.257812 131.5 499.191406 C 133.207031 503.398438 135.457031 507.378906 138.113281 511.0625 C 140.828125 514.828125 143.789062 518.257812 147.3125 521.28125 C 150.066406 523.65625 153.441406 526.347656 157.046875 527.253906 C 157.046875 527.261719 157.035156 527.261719 157.035156 527.269531 C 155.789062 529.1875 154.539062 531.019531 153.289062 532.933594 C 148.378906 540.265625 143.214844 547.511719 137.886719 554.59375 C 135.222656 558.175781 132.476562 561.757812 129.644531 565.253906 C 127.8125 567.503906 126.066406 569.585938 125.066406 571.917969 C 125.066406 571.925781 125.058594 571.933594 125.058594 571.945312 C 122.234375 571.769531 119.363281 573.460938 118.148438 576.601562 C 116.539062 580.746094 117.265625 585.144531 119.003906 589.320312 C 118.980469 589.300781 118.957031 589.285156 118.9375 589.269531 C 117.566406 593.867188 118.847656 599.039062 119.519531 603.671875 C 120.164062 608.085938 120.695312 612.535156 121.496094 616.914062 C 122.285156 621.289062 123.035156 625.679688 123.902344 630.042969 C 124.792969 634.507812 125.324219 641.5625 129.085938 644.527344 C 130.417969 645.578125 132.101562 646.128906 133.792969 646.3125 C 133.90625 646.4375 134.023438 646.570312 134.132812 646.695312 C 136.378906 649.21875 138.996094 651.515625 141.46875 653.816406 C 146.722656 658.714844 152.367188 663.203125 157.8125 667.894531 C 162.816406 672.207031 167.976562 676.273438 173.488281 679.929688 C 178.984375 683.570312 185.875 688.367188 192.679688 688.367188 C 195.632812 688.367188 197.964844 686.570312 199.207031 684.210938 C 201.628906 683.570312 204.058594 682.96875 206.457031 682.238281 C 213.957031 679.964844 221.234375 676.855469 228.414062 673.722656 C 235.179688 670.777344 241.851562 667.578125 248.359375 664.09375 C 252.988281 661.621094 257.992188 658.582031 262.207031 654.941406 C 262.5625 655.089844 262.914062 655.230469 263.261719 655.382812 C 265.703125 656.433594 268.324219 657.066406 270.914062 657.65625 C 275.410156 658.6875 279.949219 659.503906 284.46875 660.398438 C 288.996094 661.289062 293.535156 662.113281 298.074219 662.960938 C 300.519531 663.421875 302.976562 663.820312 305.433594 664.203125 C 306.664062 664.394531 307.871094 664.601562 309.078125 664.761719 C 309.230469 668.441406 309.929688 672.226562 310.128906 674.40625 C 310.84375 682.320312 311.769531 690.21875 312.359375 698.148438 C 312.957031 706.144531 313.316406 714.164062 313.617188 722.167969 C 313.917969 730.324219 312.375 741.0625 316.753906 748.191406 C 318.996094 751.832031 324.183594 752.363281 327.113281 749.425781 C 335.203125 753.972656 344.996094 755.996094 353.878906 757.996094 C 363.894531 760.246094 374.019531 761.960938 384.210938 763.210938 C 404.382812 765.691406 426.679688 767.558594 446.820312 764.019531 C 448.207031 763.777344 449.25 763.183594 450.125 762.460938 C 455.1875 761.210938 459.457031 754.238281 462.164062 750.390625 C 462.902344 749.339844 463.667969 748.308594 464.292969 747.191406 C 464.527344 746.777344 464.769531 746.359375 464.992188 745.933594 C 465.167969 745.660156 465.308594 745.375 465.417969 745.066406 C 465.585938 744.667969 465.710938 744.386719 465.816406 744.128906 C 465.835938 743.667969 466.425781 742.828125 466.601562 742.429688 C 467.007812 741.503906 467.375 740.570312 467.742188 739.636719 C 468.148438 738.585938 468.332031 737.5625 468.363281 736.523438 C 468.625 735.628906 469.082031 734.796875 469.039062 733.824219 C 469.023438 733.523438 468.964844 733.191406 468.882812 732.847656 C 468.890625 732.847656 468.890625 732.847656 468.898438 732.847656 C 470.148438 732.683594 471.3125 732.515625 472.5625 732.347656 C 478.140625 731.515625 479.386719 726.269531 477.640625 722.019531 C 480.804688 716.023438 482.300781 708.527344 483.882812 702.695312 C 486.632812 692.449219 488.960938 682.039062 490.710938 671.542969 C 492.375 661.378906 493.625 651.132812 494.375 640.972656 C 494.707031 636.558594 495.125 631.976562 495.289062 627.3125 C 501.785156 624.230469 508.113281 620.730469 514.273438 616.980469 C 514.289062 616.972656 514.304688 616.957031 514.324219 616.949219 C 518.460938 625.953125 527.828125 632.367188 536.636719 636.175781 C 542.464844 638.691406 548.324219 640.199219 554.617188 640.964844 C 560.289062 641.65625 565.425781 641.15625 569.960938 638.097656 C 572.351562 637.972656 574.785156 637.324219 577.074219 636.824219 C 579.746094 636.242188 582.359375 635.550781 585 634.800781 C 587.964844 633.949219 591 633.042969 593.808594 631.75 C 595.074219 631.167969 596.304688 630.5 597.445312 629.703125 C 598.351562 629.070312 599.484375 628.121094 600.351562 626.96875 L 600.433594 626.96875 C 603.015625 629.050781 606.84375 629.71875 609.675781 627.71875 C 622.746094 618.890625 635.152344 608.8125 646.390625 597.648438 C 651.804688 592.234375 657.050781 586.652344 661.960938 580.738281 C 664.542969 577.65625 667.121094 574.492188 669.539062 571.242188 C 672.035156 567.996094 675.199219 564.082031 675.78125 559.914062 C 675.863281 559.25 675.949219 558.5 675.78125 557.832031 C 678.527344 557 680.777344 554.75 680.609375 551.253906 C 680.359375 545.421875 676.863281 541.507812 673.699219 536.84375 C 670.621094 532.175781 667.621094 527.597656 664.707031 522.929688 C 658.796875 513.601562 653.050781 504.105469 647.558594 494.527344 C 642.480469 485.53125 637.566406 476.367188 632.65625 467.207031 C 639.066406 450.710938 644.0625 433.71875 647.640625 416.394531 L 647.640625 416.3125 C 654.21875 414.5625 660.796875 412.5625 667.289062 410.398438 C 676.949219 407.230469 686.4375 403.648438 695.847656 399.734375 C 703.007812 396.820312 713.246094 393.820312 718.824219 387.738281 C 722.40625 388.238281 726.152344 386.492188 726.984375 381.992188 C 728.484375 373.746094 728.316406 365 728.316406 356.671875 C 728.234375 348.675781 727.898438 340.59375 727.152344 332.597656 C 726.402344 324.519531 725.320312 316.355469 723.902344 308.359375 C 723.15625 304.277344 722.488281 299.695312 721.074219 295.53125 C 722.570312 294.03125 723.40625 291.863281 723.40625 289.949219 C 723.40625 286.285156 720.90625 283.453125 717.578125 282.285156 C 713.828125 281.035156 709.5 281.035156 705.671875 280.453125 C 701.675781 279.785156 697.679688 278.953125 693.683594 278.121094 C 686.105469 276.371094 678.53125 274.121094 671.121094 271.457031 C 663.960938 268.875 656.964844 265.710938 650.140625 262.378906 C 647.707031 261.160156 644.992188 259.480469 642.179688 257.964844 L 631.363281 228.191406 C 632.273438 226.183594 633.136719 224.144531 633.996094 222.21875 C 637.242188 215.058594 640.574219 207.894531 643.820312 200.730469 C 647.066406 193.648438 650.3125 186.484375 653.476562 179.324219 C 655.308594 175.40625 657.390625 171.410156 658.054688 167.160156 C 658.304688 165.746094 658.222656 164.414062 657.722656 163.164062 L 657.722656 163.078125 C 658.554688 160.246094 658.472656 157.5 657.640625 154.167969 C 656.558594 149.75 654.558594 145.671875 652.5625 141.589844 C 648.980469 134.09375 644.902344 126.84375 640.324219 119.929688 C 635.992188 113.269531 631.332031 106.4375 625.753906 100.691406 C 621.921875 96.691406 615.761719 91.359375 609.601562 90.445312 C 605.1875 87.195312 597.28125 90.359375 592.617188 92.109375 C 578.964844 97.109375 565.476562 102.6875 552.488281 109.351562 C 545.910156 112.683594 539.082031 116.101562 532.921875 120.347656 C 522.847656 115.433594 512.359375 111.351562 501.535156 108.101562 C 501.203125 106.269531 500.867188 104.523438 500.535156 102.6875 C 498.621094 92.445312 496.371094 82.28125 494.042969 72.203125 C 491.628906 62.125 488.964844 52.042969 486.132812 42.046875 C 483.300781 32.136719 481.136719 20.808594 475.390625 12.0625 C 473.976562 10.0625 471.730469 8.980469 469.480469 8.894531 C 468.730469 7.980469 467.734375 7.3125 466.566406 6.898438 C 458.242188 3.566406 447.667969 3.316406 438.84375 2.484375 C 429.851562 1.648438 420.859375 1.398438 411.949219 1.566406 C 402.875 1.734375 393.800781 2.398438 384.894531 3.648438 C 379.8125 4.316406 374.152344 4.816406 368.742188 6.0625 C 365.660156 -0.101562 355.421875 0.648438 353.589844 8.0625 C 353.589844 8.070312 353.589844 8.089844 353.578125 8.097656 C 353.3125 8.148438 353.023438 8.121094 352.765625 8.1875 C 351.53125 8.511719 350.441406 9.253906 349.234375 9.65625 C 349.800781 9.378906 349.699219 9.378906 348.941406 9.664062 C 348.117188 9.972656 347.3125 10.328125 346.519531 10.730469 C 345.644531 11.144531 344.796875 11.585938 343.957031 12.0625 C 340.625 13.960938 337.5625 16.433594 334.449219 18.660156 C 330.933594 21.15625 327.394531 23.597656 324.097656 26.398438 C 322.632812 27.636719 321.34375 29.03125 320.101562 30.488281 C 318.445312 32.4375 317.5625 34.234375 316.621094 36.601562 C 315.730469 38.839844 317.207031 41.375 319.261719 42.457031 C 319.105469 44.238281 319.019531 46.03125 318.84375 47.769531 C 318.429688 51.878906 317.6875 55.917969 317.265625 60.023438 C 316.472656 67.789062 315.449219 75.558594 314.050781 83.230469 C 312.632812 90.96875 311.019531 98.683594 308.988281 106.289062 C 307.929688 110.234375 306.664062 114.125 305.589844 118.066406 C 305.082031 119.914062 304.632812 121.65625 304.484375 123.578125 C 304.46875 123.820312 304.542969 124.003906 304.542969 124.238281 C 304.515625 124.253906 304.484375 124.261719 304.449219 124.269531 C 302.285156 125.1875 300.121094 126.1875 298.039062 127.1875 C 294.292969 128.601562 290.464844 130.101562 286.71875 131.683594 C 285.21875 130.519531 283.386719 129.601562 281.554688 128.519531 C 276.644531 125.6875 271.8125 122.9375 266.902344 120.105469 C 256.578125 114.191406 246.253906 108.277344 235.929688 102.363281 C 227.023438 97.28125 217.863281 91.617188 207.625 89.785156 C 199.464844 88.371094 185.476562 88.285156 181.8125 97.367188 C 181.804688 97.382812 181.796875 97.398438 181.789062 97.425781 C 177.453125 97.898438 172.40625 102.097656 169.925781 104.753906 C 160.691406 114.652344 151.359375 124.453125 142.234375 134.441406 C 137.453125 139.671875 132.476562 144.820312 128.070312 150.367188 C 123.859375 155.675781 118.964844 162.328125 119.738281 169.425781 C 119.039062 171.085938 118.449219 172.800781 117.90625 174.5 C 116.964844 177.429688 116.023438 180.355469 115.09375 183.289062 C 114.160156 186.21875 113.359375 189.183594 112.511719 192.140625 C 111.421875 195.933594 109.722656 200.894531 112.351562 204.394531 C 114.136719 206.769531 116.789062 208.316406 119.855469 207.453125 C 119.894531 207.445312 119.929688 207.425781 119.972656 207.417969 C 120.003906 207.558594 120.046875 207.71875 120.078125 207.851562 C 120.730469 210.566406 122.101562 213.273438 123.433594 215.707031 C 126.058594 220.511719 128.722656 225.292969 131.277344 230.140625 C 133.765625 234.882812 136.039062 239.5625 139.078125 243.984375 C 140.285156 245.742188 141.535156 247.476562 142.824219 249.175781 C 135.15625 257.65625 130.859375 269.476562 126.613281 279.886719 C 124.332031 285.476562 122.261719 291.140625 120.386719 296.878906 C 119.082031 300.863281 117.582031 304.894531 117.367188 308.949219 C 112.046875 310.367188 106.640625 311.855469 101.320312 313.273438 C 93.496094 315.4375 82.507812 316.519531 76.011719 321.9375 C 75.84375 321.769531 75.679688 321.519531 75.511719 321.351562 C 73.929688 319.6875 71.347656 319.9375 69.683594 321.351562 C 67.769531 323.019531 66.519531 325.183594 65.605469 327.683594 C 65.605469 327.714844 65.589844 327.773438 65.570312 327.824219 C 65.148438 328.097656 64.707031 328.332031 64.304688 328.757812 C 64.714844 328.523438 65.113281 328.28125 65.523438 328.050781 L 65.523438 328.082031 C 62.015625 329.914062 60.210938 333.753906 58.285156 337.121094 C 56.355469 340.484375 54.566406 343.96875 52.925781 347.484375 C 51.277344 351.015625 49.5625 354.53125 48.003906 358.101562 C 46.539062 361.460938 44.242188 366.300781 45.230469 370.191406 C 44.933594 370.148438 44.597656 370.1875 44.382812 370.457031 Z M 454.292969 736.464844 C 454.027344 736.648438 453.785156 736.863281 453.570312 737.097656 C 453.222656 737.421875 452.878906 737.761719 452.53125 738.097656 C 451.605469 738.988281 450.804688 739.988281 449.972656 740.96875 C 448.382812 742.851562 446.042969 745.410156 444.1875 748.167969 C 434.480469 747.984375 424.730469 749.007812 414.996094 748.816406 C 405.097656 748.625 395.199219 747.933594 385.359375 746.757812 C 375.5 745.578125 365.703125 743.878906 356.011719 741.703125 C 347.726562 739.84375 339.382812 737.023438 330.882812 736.1875 C 330.96875 730.839844 330.234375 725.285156 330.058594 720.445312 C 329.742188 711.847656 329.21875 703.277344 328.277344 694.722656 C 327.335938 686.21875 326.148438 677.332031 323.214844 669.242188 C 322.667969 667.734375 321.375 663.796875 319.578125 660.414062 C 320.941406 657.199219 319.96875 653.066406 316.640625 650.808594 C 314.234375 649.175781 311.453125 648.984375 308.65625 648.542969 C 305.839844 648.101562 303.019531 647.710938 300.1875 647.34375 C 295.617188 646.753906 291.046875 646.136719 286.476562 645.585938 C 281.90625 645.046875 277.34375 644.429688 272.761719 644.011719 C 271.289062 643.878906 269.390625 643.71875 267.441406 643.652344 C 265.96875 641.503906 263.082031 640.082031 260.484375 640.582031 C 256.851562 641.28125 253.296875 643.335938 249.933594 644.84375 C 246.554688 646.351562 243.265625 648.042969 240 649.792969 C 233.699219 653.167969 227.304688 656.355469 220.777344 659.28125 C 214.46875 662.105469 207.996094 664.542969 201.585938 667.128906 C 198.238281 668.476562 194.859375 669.742188 191.503906 671.074219 C 188.214844 669.316406 184.726562 667.769531 181.722656 665.859375 C 176.417969 662.503906 171.316406 658.804688 166.121094 655.273438 C 160.492188 651.441406 155.023438 647.359375 149.242188 643.746094 C 146.6875 642.144531 144.089844 640.464844 141.417969 639.03125 C 141.792969 635 140.359375 630.726562 139.417969 626.804688 C 138.34375 622.339844 137.089844 617.90625 135.898438 613.476562 C 135.605469 612.375 135.230469 611.292969 134.90625 610.203125 C 138.605469 613.773438 142.433594 617.207031 146.320312 620.480469 C 153.257812 626.320312 160.507812 631.824219 168.035156 636.890625 C 171.855469 639.464844 175.746094 641.921875 179.714844 644.261719 C 182.972656 646.179688 186.210938 648.292969 189.773438 649.460938 C 189.773438 649.46875 189.773438 649.476562 189.78125 649.484375 C 190.363281 651.652344 192.027344 653.484375 194.277344 653.984375 C 202.9375 655.898438 213.011719 651.316406 221.085938 648.402344 C 230.078125 645.238281 238.820312 641.320312 247.226562 637.074219 C 255.386719 632.992188 263.214844 628.492188 270.789062 623.496094 C 272.539062 622.328125 274.285156 621.082031 276.035156 619.914062 C 290.855469 627.578125 306.507812 633.90625 322.574219 638.65625 C 324.324219 646.152344 325.820312 653.648438 327.152344 661.230469 C 328.902344 670.558594 330.484375 679.972656 332.066406 689.382812 C 332.816406 694.046875 333.566406 698.796875 334.3125 703.460938 C 335.0625 708.210938 335.398438 712.957031 337.644531 717.207031 C 338.476562 718.789062 339.808594 719.871094 341.472656 720.289062 L 341.558594 720.289062 C 341.972656 721.285156 342.804688 722.035156 344.136719 722.621094 C 354.296875 727.035156 365.285156 728.199219 376.191406 729.535156 C 386.597656 730.867188 397.089844 731.949219 407.578125 732.617188 C 423.816406 733.699219 440.964844 734.863281 457.617188 733.863281 C 457.640625 733.863281 457.632812 733.863281 457.640625 733.863281 C 457.285156 734.132812 456.925781 734.390625 456.574219 734.664062 C 456.167969 734.988281 455.585938 735.699219 455.101562 735.871094 C 454.859375 736.03125 454.628906 736.214844 454.292969 736.464844 Z M 555.800781 624.703125 C 555.300781 624.664062 554.800781 624.605469 554.300781 624.546875 C 554.136719 624.511719 553.667969 624.4375 553.351562 624.378906 C 552.203125 624.179688 551.054688 623.9375 549.921875 623.65625 C 547.523438 623.070312 545.167969 622.320312 542.855469 621.472656 C 542.371094 621.296875 541.878906 621.105469 541.40625 620.914062 C 541.230469 620.847656 541.199219 620.839844 541.191406 620.839844 C 541.105469 620.796875 541.039062 620.765625 540.796875 620.648438 C 539.742188 620.148438 538.683594 619.648438 537.652344 619.089844 C 535.46875 617.933594 533.421875 616.574219 531.355469 615.226562 C 528.96875 613.667969 526.636719 612.050781 524.289062 610.476562 C 524.289062 610.476562 524.296875 610.476562 524.296875 610.46875 C 528.792969 607.386719 533.207031 604.222656 537.453125 600.722656 C 540.367188 602.636719 543.445312 604.472656 546.441406 606.304688 C 555.183594 611.550781 564.175781 616.300781 573.417969 620.628906 C 573.585938 620.714844 573.75 620.796875 573.917969 620.878906 C 573.933594 620.890625 573.960938 620.898438 573.976562 620.914062 C 573.578125 620.980469 573.175781 621.015625 572.777344 621.089844 C 568.957031 621.804688 565.582031 622.429688 562.9375 625.179688 C 560.546875 624.921875 558.183594 624.921875 555.800781 624.703125 Z M 343.265625 32.300781 C 346.195312 30.179688 349.21875 28.105469 352.03125 25.804688 C 352.03125 25.839844 352.023438 25.871094 352.023438 25.914062 C 350.609375 42.238281 348.359375 58.398438 344.113281 74.558594 C 341.28125 85.136719 337.871094 95.46875 333.871094 105.628906 C 332.707031 108.628906 331.375 111.625 329.960938 114.542969 C 327.628906 115.292969 325.296875 116.042969 323.050781 116.957031 C 323.625 114.851562 324.15625 112.734375 324.664062 110.628906 C 326.679688 102.273438 328.210938 93.84375 329.21875 85.304688 C 330.210938 76.898438 330.71875 68.503906 330.550781 60.039062 C 330.476562 55.925781 329.835938 51.871094 329.34375 47.789062 C 329.085938 45.671875 328.886719 43.539062 328.511719 41.449219 C 330.308594 40.699219 332.082031 39.933594 333.757812 38.925781 C 337.070312 36.917969 340.132812 34.566406 343.265625 32.300781 Z M 142.09375 285.402344 C 144.015625 280.4375 146.113281 275.539062 148.351562 270.707031 C 151.042969 264.917969 153.816406 259.519531 155.046875 253.214844 C 155.472656 251.03125 154.90625 248.515625 153.214844 246.96875 C 152.933594 244.660156 152.472656 242.4375 151.867188 240.1875 C 150.433594 234.847656 148.3125 230.035156 145.6875 225.1875 C 143.316406 220.804688 140.84375 216.496094 138.105469 212.332031 C 135.082031 207.726562 131.960938 202.445312 126.65625 200.320312 C 127.4375 200.78125 128.222656 201.238281 129.003906 201.6875 C 128.128906 200.953125 127.257812 200.179688 126.339844 199.480469 C 126.632812 198.355469 126.871094 197.222656 127.097656 196.164062 C 127.730469 193.148438 128.414062 190.140625 128.953125 187.109375 C 129.085938 186.367188 129.21875 185.628906 129.355469 184.886719 C 129.371094 184.894531 129.378906 184.910156 129.394531 184.917969 C 131.726562 186.417969 134.308594 187.585938 136.472656 189.335938 C 139.304688 191.582031 141.800781 194.25 144.046875 197.082031 C 148.960938 203.410156 152.625 210.910156 155.871094 218.238281 C 159.867188 227.066406 163.449219 236.148438 167.277344 245.144531 C 168.109375 247.144531 169.027344 249.140625 169.859375 251.222656 C 169.859375 251.222656 169.859375 251.222656 169.859375 251.308594 C 166.609375 258.136719 163.613281 265.136719 160.949219 272.296875 C 157.621094 281.210938 154.789062 290.289062 152.457031 299.535156 C 146.8125 300.953125 141.242188 302.445312 135.597656 303.941406 C 135.855469 303.058594 136.113281 302.167969 136.398438 301.300781 C 138.152344 295.953125 140.0625 290.648438 142.09375 285.402344 Z M 105.75 329.273438 C 114.910156 326.691406 124.066406 324.191406 133.308594 321.695312 C 138.386719 320.277344 143.382812 318.945312 148.460938 317.445312 C 152.539062 316.363281 156.703125 315.113281 160.78125 313.945312 C 162.449219 313.449219 164.445312 312.949219 166.527344 312.363281 L 171.105469 295.039062 C 173.6875 286.042969 176.851562 277.214844 180.429688 268.632812 C 182.679688 263.300781 185.09375 257.972656 187.757812 252.808594 C 185.84375 247.476562 183.59375 242.394531 181.515625 237.148438 C 180.929688 235.648438 180.347656 234.230469 179.765625 232.730469 C 176.351562 224.152344 172.855469 215.65625 169.027344 207.328125 C 165.277344 199.246094 160.867188 191.582031 155.121094 184.585938 C 149.710938 178.007812 141.21875 170.09375 132.226562 169.425781 L 131.558594 169.425781 C 131.511719 169.425781 131.46875 169.453125 131.425781 169.453125 C 131.410156 168.960938 131.5 168.46875 131.445312 167.984375 C 131.433594 167.945312 131.417969 167.902344 131.410156 167.851562 C 133.625 166.195312 135.691406 164.3125 137.613281 162.488281 C 142.226562 158.089844 146.613281 153.457031 151.050781 148.886719 C 160.476562 139.171875 169.667969 129.234375 178.941406 119.390625 C 182.0625 116.074219 187.316406 111.277344 188.414062 106.203125 C 188.414062 106.203125 188.425781 106.203125 188.425781 106.203125 C 191.421875 106.289062 194.417969 105.371094 197.332031 105.289062 C 201.660156 105.121094 205.742188 105.953125 209.820312 107.371094 C 218.5625 110.453125 226.554688 115.949219 234.546875 120.613281 C 243.375 125.695312 252.28125 130.777344 261.191406 135.941406 C 263.605469 137.355469 266.101562 138.691406 268.515625 140.1875 C 270.679688 141.355469 272.761719 142.605469 274.925781 143.855469 C 279.839844 146.601562 287.414062 150.183594 292.910156 148.019531 C 293.078125 147.9375 293.160156 147.9375 293.328125 147.851562 L 293.410156 147.769531 C 297.488281 145.6875 301.570312 143.6875 305.648438 141.773438 C 305.816406 141.773438 305.980469 141.6875 306.148438 141.605469 C 311.0625 139.773438 315.972656 138.105469 320.886719 136.441406 L 320.96875 136.441406 L 322.800781 135.859375 C 328.792969 133.941406 334.707031 132.109375 340.785156 130.359375 L 340.867188 130.359375 C 343.863281 124.53125 346.363281 118.199219 348.859375 112.117188 C 349.359375 110.867188 349.859375 109.617188 350.273438 108.371094 L 350.359375 108.371094 C 354.105469 98.789062 357.351562 88.960938 360.097656 78.964844 C 364.925781 60.972656 368.507812 41.730469 369.421875 22.90625 C 375.335938 22.242188 381.414062 20.574219 387.074219 19.90625 C 395.648438 18.910156 404.308594 18.242188 412.964844 18.074219 C 421.542969 17.992188 430.199219 18.324219 438.859375 19.074219 C 446.933594 19.824219 455.34375 22.15625 463.503906 22.324219 C 464.917969 30.488281 468.082031 38.566406 470.246094 46.480469 C 473.078125 56.476562 475.660156 66.554688 477.988281 76.632812 C 480.152344 85.546875 482.070312 94.625 483.816406 103.621094 L 483.902344 103.621094 C 484.152344 104.789062 484.316406 105.871094 484.566406 107.035156 C 485.484375 111.617188 486.066406 116.53125 486.730469 121.363281 C 492.890625 122.863281 498.96875 124.613281 504.964844 126.695312 C 510.375 128.609375 515.703125 130.691406 520.949219 133.027344 C 520.449219 134.359375 520.449219 135.691406 521.449219 136.605469 C 523.78125 138.773438 527.195312 138.605469 530.523438 137.691406 C 530.609375 137.691406 530.609375 137.691406 530.609375 137.691406 C 533.523438 136.773438 536.351562 135.441406 538.433594 134.523438 C 542.097656 132.941406 545.675781 131.109375 549.257812 129.277344 C 552.171875 127.777344 555.167969 126.277344 558.082031 124.777344 C 570.820312 118.613281 583.726562 112.949219 597.046875 108.121094 C 599.128906 107.285156 602.042969 106.453125 604.789062 105.289062 C 606.203125 106.121094 607.785156 106.953125 609.203125 107.871094 C 611.449219 109.371094 613.449219 111.367188 615.277344 113.449219 C 619.859375 118.53125 623.6875 124.445312 627.433594 130.359375 C 631.347656 136.691406 635.09375 143.1875 638.339844 149.933594 C 639.921875 153.183594 641.339844 156.597656 643.253906 159.679688 C 643.667969 160.347656 644.085938 161.011719 644.585938 161.597656 C 641.253906 165.429688 639.257812 171.59375 637.507812 175.339844 C 634.261719 182.253906 631.097656 189.167969 627.933594 196 C 625.851562 200.496094 623.769531 204.910156 621.773438 209.410156 C 620.609375 211.824219 619.441406 214.324219 618.359375 216.738281 C 616.527344 220.902344 614.363281 224.984375 612.449219 229.234375 L 612.449219 229.316406 C 615.277344 235.398438 617.777344 241.644531 620.023438 247.976562 C 621.355469 247.394531 625.601562 266.632812 626.4375 265.21875 C 626.445312 265.210938 626.453125 265.210938 626.460938 265.191406 C 629.882812 270.457031 637.839844 274.0625 642.671875 276.714844 C 643.917969 277.378906 645.167969 278.046875 646.5 278.710938 C 653.078125 281.960938 659.90625 284.792969 666.816406 287.375 C 674.640625 290.289062 682.632812 292.621094 690.792969 294.457031 C 695.539062 295.457031 700.699219 296.789062 705.863281 297.453125 C 706.027344 301.953125 707.277344 306.699219 707.945312 310.949219 C 709.191406 318.445312 710.023438 325.941406 710.691406 333.523438 C 711.355469 341.183594 711.691406 348.933594 711.691406 356.679688 C 711.773438 363.09375 711.105469 369.589844 711.023438 376.085938 C 708.191406 376.753906 705.527344 378.003906 702.78125 379.167969 C 698.367188 381 694.039062 382.917969 689.628906 384.667969 C 680.21875 388.496094 670.644531 391.996094 660.988281 395.160156 C 657.65625 396.246094 654.328125 397.246094 650.996094 398.160156 C 645.167969 399.992188 639.257812 401.574219 633.347656 402.992188 C 632.429688 409.074219 631.179688 415.152344 629.765625 421.152344 C 627.601562 430.148438 625.101562 439.058594 622.191406 447.804688 C 620.023438 454.550781 617.527344 461.214844 614.863281 467.714844 C 615.445312 469.046875 616.113281 470.460938 616.777344 471.796875 C 619.277344 476.875 621.855469 481.957031 624.519531 486.871094 C 627.269531 491.953125 630.015625 496.949219 632.847656 501.949219 C 638.339844 511.609375 644.003906 521.023438 649.832031 530.4375 C 652.828125 535.101562 655.824219 539.683594 658.824219 544.347656 C 660.652344 547.011719 662.402344 550.34375 664.566406 553.011719 C 661.734375 554.84375 659.65625 557.839844 657.492188 560.507812 C 655.160156 563.421875 652.828125 566.335938 650.414062 569.167969 C 645.585938 574.917969 640.507812 580.414062 635.175781 585.664062 C 624.769531 595.90625 613.449219 605.238281 601.292969 613.402344 C 600.210938 614.148438 599.378906 615.066406 598.710938 616.066406 C 593.882812 611.402344 586.890625 608.984375 580.894531 606.152344 C 571.984375 601.90625 563.242188 597.15625 554.753906 591.992188 C 553.503906 591.242188 552.171875 590.410156 550.921875 589.578125 C 546.011719 586.664062 541.265625 583.582031 536.601562 580.164062 C 532.273438 583.996094 527.859375 587.578125 523.28125 591.078125 C 514.457031 597.574219 505.132812 603.570312 495.390625 608.820312 C 495.058594 608.984375 494.808594 609.152344 494.472656 609.320312 C 489.230469 612.066406 483.902344 614.566406 478.488281 616.816406 C 478.15625 622.8125 478.324219 628.894531 478.074219 634.890625 C 478.074219 636.558594 477.988281 638.222656 477.90625 639.804688 C 477.15625 649.71875 475.992188 659.546875 474.328125 669.292969 C 472.746094 679.039062 470.664062 688.699219 468.164062 698.28125 C 466.667969 704.027344 464.085938 710.191406 463.003906 716.355469 C 455.011719 716.4375 447.019531 717.105469 439.027344 717.105469 C 428.867188 717.023438 418.792969 716.6875 408.71875 716.105469 C 398.644531 715.4375 388.574219 714.605469 378.582031 713.441406 C 369.839844 712.441406 360.929688 710.523438 352.023438 710.359375 C 352.023438 702.695312 349.523438 694.199219 348.359375 686.953125 C 346.777344 677.207031 345.195312 667.460938 343.363281 657.796875 C 342.449219 652.964844 341.53125 648.21875 340.449219 643.386719 C 339.535156 638.890625 338.453125 634.390625 337.371094 629.894531 C 337.035156 628.476562 336.703125 626.8125 336.289062 625.144531 C 329.960938 623.5625 323.632812 621.648438 317.386719 619.480469 C 315.972656 619.066406 314.640625 618.566406 313.226562 618.066406 C 305.566406 615.316406 298.15625 612.234375 290.914062 608.734375 C 285.417969 606.152344 280.089844 603.320312 274.84375 600.238281 C 274.429688 600.65625 273.929688 600.988281 273.511719 601.320312 C 269.847656 603.988281 266.1875 606.652344 262.355469 609.152344 C 261.441406 609.734375 260.609375 610.320312 259.691406 610.816406 C 253.199219 615.066406 246.539062 618.898438 239.625 622.394531 C 232.132812 626.226562 224.472656 629.558594 216.730469 632.558594 C 211.570312 634.558594 205.324219 635.808594 199.832031 638.054688 C 199.832031 638.054688 199.820312 638.054688 199.820312 638.066406 C 199.613281 637.757812 199.449219 637.429688 199.207031 637.125 C 196.535156 633.800781 191.695312 632.050781 188.074219 629.910156 C 184.644531 627.894531 181.273438 625.796875 177.949219 623.613281 C 171.363281 619.289062 164.996094 614.648438 158.917969 609.628906 C 152.882812 604.644531 146.929688 599.414062 141.574219 593.691406 C 139.054688 591 136.820312 588.179688 134.957031 584.988281 C 134.589844 584.371094 134.359375 583.695312 134.050781 583.046875 C 137.503906 582.03125 139.828125 578.972656 142.390625 575.832031 C 145.222656 572.167969 148.054688 568.503906 150.800781 564.839844 C 156.460938 557.339844 161.957031 549.761719 167.203125 541.929688 C 170.949219 536.433594 174.527344 530.851562 177.941406 525.105469 C 179.273438 523.023438 180.523438 520.941406 181.773438 518.859375 C 183.605469 515.859375 185.851562 512.527344 187.765625 509.113281 C 185.933594 505.449219 184.1875 501.78125 182.519531 497.949219 C 181.523438 495.785156 180.605469 493.535156 179.773438 491.285156 C 179.773438 491.203125 179.773438 491.203125 179.773438 491.203125 C 176.941406 484.289062 174.445312 477.292969 172.199219 470.128906 C 170.367188 463.882812 168.617188 457.636719 167.203125 451.222656 L 167.203125 451.136719 C 161.207031 449.054688 155.214844 446.722656 149.21875 444.640625 C 148.46875 444.308594 147.636719 444.058594 146.886719 443.808594 C 135.316406 439.808594 123.328125 436.644531 111.253906 434.5625 C 102.179688 432.980469 92.855469 431.394531 83.695312 432.230469 C 83.863281 422.566406 82.113281 412.570312 81.449219 402.824219 C 80.867188 393.664062 80.449219 384.5 80.199219 375.253906 C 79.949219 366.089844 79.867188 356.84375 80.03125 347.683594 C 80.03125 343.851562 80.449219 339.269531 80.199219 334.855469 C 88.433594 335.769531 98.007812 331.355469 105.75 329.273438 Z M 52.589844 374.988281 C 57.671875 374.304688 60.210938 367.148438 61.890625 363.050781 C 62.457031 361.675781 62.992188 360.292969 63.539062 358.917969 C 63.539062 364.699219 63.625 370.480469 63.707031 376.34375 C 63.957031 385.925781 64.371094 395.421875 65.039062 405 C 65.621094 414.746094 65.703125 425.074219 67.953125 434.652344 C 68.453125 436.734375 69.535156 438.152344 70.949219 439.152344 C 71.117188 441.234375 72.53125 443.398438 74.695312 444.148438 C 86.601562 448.480469 99.507812 448.8125 111.828125 451.3125 C 124.734375 453.894531 137.222656 457.644531 149.542969 462.222656 C 150.875 462.722656 152.125 463.222656 153.457031 463.640625 C 157.371094 478.96875 162.613281 493.792969 169.191406 507.953125 C 168.777344 508.621094 168.441406 509.289062 168.027344 509.953125 C 166.695312 512.121094 165.277344 514.367188 163.945312 516.535156 C 163.945312 516.535156 163.9375 516.542969 163.9375 516.542969 C 163.363281 515.859375 162.738281 515.203125 162.023438 514.585938 C 160.90625 513.628906 159.742188 512.71875 158.570312 511.84375 C 158.308594 511.652344 158.050781 511.460938 157.792969 511.269531 C 157.710938 511.203125 157.5625 511.085938 157.3125 510.886719 C 154.296875 508.429688 151.457031 505.671875 148.878906 502.765625 C 148.246094 502.058594 147.644531 501.324219 147.039062 500.589844 C 146.9375 500.464844 146.929688 500.464844 146.878906 500.40625 C 146.863281 500.382812 146.878906 500.40625 146.847656 500.359375 C 146.5625 499.964844 146.273438 499.589844 145.996094 499.199219 C 144.882812 497.640625 143.882812 496.027344 142.867188 494.402344 C 142.066406 493.128906 141.335938 491.804688 140.601562 490.488281 C 141.382812 489.503906 141.492188 487.929688 140.886719 486.90625 C 137.347656 480.925781 129.71875 478.183594 123.542969 475.800781 C 116.398438 473.035156 108.871094 471.085938 101.53125 468.929688 C 94.402344 466.839844 87.292969 464.78125 80.074219 463.023438 C 74.128906 461.574219 67.769531 459.800781 61.566406 460.117188 C 61.75 456.601562 60.144531 453.179688 59.402344 449.761719 C 58.652344 446.324219 58.328125 442.816406 58.011719 439.308594 C 57.277344 431.289062 56.636719 423.265625 55.78125 415.261719 C 54.914062 407.199219 53.898438 399.160156 52.699219 391.136719 C 51.949219 386.105469 51.410156 379.617188 48.921875 374.652344 C 49.992188 375.078125 51.191406 375.171875 52.589844 374.988281 Z M 52.589844 374.988281 " fill-opacity="1" fill-rule="nonzero"/><path fill="rgb(100%, 100%, 100%)" d="M 465.835938 744.128906 C 465.835938 744.144531 465.808594 744.167969 465.816406 744.175781 C 466.277344 743.085938 466.265625 743.101562 465.835938 744.128906 Z M 465.835938 744.128906 " fill-opacity="1" fill-rule="nonzero"/><path fill="rgb(100%, 100%, 100%)" d="M 455.0625 735.871094 C 455.070312 735.871094 455.070312 735.863281 455.078125 735.863281 C 455.960938 735.179688 455.976562 735.164062 455.0625 735.871094 Z M 455.0625 735.871094 " fill-opacity="1" fill-rule="nonzero"/></svg>